<svg xmlns="http://www.w3.org/2000/svg" viewBox="0 0 450 450"><defs><style>.cls-1{fill:#ededed;}.cls-2{fill:#333;}.cls-3{fill:#00613c;}</style></defs><g id="Layer_2" data-name="Layer 2"><g id="Layer_1-2" data-name="Layer 1"><circle class="cls-1" cx="225" cy="225" r="225"></circle><path class="cls-2" d="M108,293.23a3.69,3.69,0,0,1-2.73-1.05,3.54,3.54,0,0,1-1-2.61V254.89a3.59,3.59,0,0,1,3.66-3.66h19.5a3.66,3.66,0,0,1,2.61,1,3.35,3.35,0,0,1,1.05,2.55,3.18,3.18,0,0,1-1.05,2.34,3.6,3.6,0,0,1-2.61,1h-16.2l.54-.72v12.06l-.42-.78h13.38a3.66,3.66,0,0,1,2.61,1,3.35,3.35,0,0,1,1,2.55,3.18,3.18,0,0,1-1,2.34,3.6,3.6,0,0,1-2.61,1h-13.5l.54-.54v14.52a3.45,3.45,0,0,1-1.11,2.61A3.67,3.67,0,0,1,108,293.23Z"></path><path class="cls-2" d="M139.21,293.23a3.44,3.44,0,0,1-2.58-1.05,3.6,3.6,0,0,1-1-2.61V264.79a3.6,3.6,0,0,1,1-2.61,3.69,3.69,0,0,1,5.16,0,3.6,3.6,0,0,1,1,2.61v5.64l-.42-4a9.35,9.35,0,0,1,1.71-2.55,10.14,10.14,0,0,1,2.37-1.86,10.76,10.76,0,0,1,2.82-1.11,12.82,12.82,0,0,1,3-.36,4.59,4.59,0,0,1,3,1,3,3,0,0,1,1.23,2.4,3.56,3.56,0,0,1-1,2.85,3.35,3.35,0,0,1-2.22.87,5,5,0,0,1-2.07-.42,5.12,5.12,0,0,0-2.13-.42,5.22,5.22,0,0,0-2.19.51,6,6,0,0,0-2,1.59,8.37,8.37,0,0,0-1.5,2.67,11.12,11.12,0,0,0-.57,3.75v14.22a3.6,3.6,0,0,1-1,2.61A3.44,3.44,0,0,1,139.21,293.23Z"></path><path class="cls-2" d="M174,293.83a17.62,17.62,0,0,1-8.85-2.13,14.71,14.71,0,0,1-5.76-5.79,16.91,16.91,0,0,1-2-8.28,18.2,18.2,0,0,1,2.19-9.21,15.49,15.49,0,0,1,5.73-5.85,14.79,14.79,0,0,1,7.5-2,13.65,13.65,0,0,1,5.79,1.26,15.83,15.83,0,0,1,4.83,3.45,16.77,16.77,0,0,1,3.33,5.07,15.42,15.42,0,0,1,1.23,6.12,3.08,3.08,0,0,1-1.14,2.34,3.82,3.82,0,0,1-2.52.9H161.35l-1.8-6h22l-1.32,1.2v-1.62a5.47,5.47,0,0,0-1.23-3.12,8,8,0,0,0-2.76-2.19,7.86,7.86,0,0,0-3.51-.81,11.37,11.37,0,0,0-3.36.48,6.44,6.44,0,0,0-2.7,1.62,7.86,7.86,0,0,0-1.8,3.06,15.17,15.17,0,0,0-.66,4.86,10.49,10.49,0,0,0,1.35,5.49,9.23,9.23,0,0,0,8,4.59,14,14,0,0,0,3.54-.36,8,8,0,0,0,2.13-.87q.81-.51,1.47-.87a4.58,4.58,0,0,1,2-.54,3,3,0,0,1,3.06,3,3.74,3.74,0,0,1-1.68,2.94,13.92,13.92,0,0,1-4.38,2.31A17.45,17.45,0,0,1,174,293.83Z"></path><path class="cls-2" d="M207.55,293.83a17.62,17.62,0,0,1-8.85-2.13,14.71,14.71,0,0,1-5.76-5.79,16.91,16.91,0,0,1-2-8.28,18.2,18.2,0,0,1,2.19-9.21,15.49,15.49,0,0,1,5.73-5.85,14.79,14.79,0,0,1,7.5-2,13.65,13.65,0,0,1,5.79,1.26,15.83,15.83,0,0,1,4.83,3.45,16.77,16.77,0,0,1,3.33,5.07,15.42,15.42,0,0,1,1.23,6.12,3.08,3.08,0,0,1-1.14,2.34,3.82,3.82,0,0,1-2.52.9H195l-1.8-6h22l-1.32,1.2v-1.62a5.47,5.47,0,0,0-1.23-3.12,8,8,0,0,0-2.76-2.19,7.86,7.86,0,0,0-3.51-.81,11.37,11.37,0,0,0-3.36.48,6.44,6.44,0,0,0-2.7,1.62,7.86,7.86,0,0,0-1.8,3.06,15.17,15.17,0,0,0-.66,4.86,10.49,10.49,0,0,0,1.35,5.49,9.23,9.23,0,0,0,8,4.59,14,14,0,0,0,3.54-.36,8,8,0,0,0,2.13-.87q.81-.51,1.47-.87a4.58,4.58,0,0,1,2-.54,3,3,0,0,1,3.06,3,3.74,3.74,0,0,1-1.68,2.94,13.92,13.92,0,0,1-4.38,2.31A17.45,17.45,0,0,1,207.55,293.83Z"></path><path class="cls-2" d="M224.47,288.25a3.36,3.36,0,0,1-.54-2.16,2.89,2.89,0,0,1,1.56-2.28,3.25,3.25,0,0,1,2-.51,3.4,3.4,0,0,1,2.1,1.11,14.16,14.16,0,0,0,3.66,2.7,10.69,10.69,0,0,0,4.8,1,16,16,0,0,0,2-.27,3.8,3.8,0,0,0,1.89-1,3,3,0,0,0,.81-2.31,2.64,2.64,0,0,0-.9-2.1,7.58,7.58,0,0,0-2.37-1.32q-1.47-.54-3.27-1t-3.81-1.2a15.91,15.91,0,0,1-3.57-1.71,8.22,8.22,0,0,1-2.64-2.79,8.55,8.55,0,0,1-1-4.38,7.91,7.91,0,0,1,1.68-5.1,11,11,0,0,1,4.35-3.24,14.14,14.14,0,0,1,5.61-1.14,18.11,18.11,0,0,1,3.9.45,15.26,15.26,0,0,1,3.9,1.44,9.64,9.64,0,0,1,3.12,2.61,4.26,4.26,0,0,1,.78,2.16,2.58,2.58,0,0,1-1.14,2.28,2.9,2.9,0,0,1-2.1.63,3.17,3.17,0,0,1-2-.81,7.09,7.09,0,0,0-2.73-2.1,9.38,9.38,0,0,0-3.93-.78,10,10,0,0,0-2,.21,3.85,3.85,0,0,0-1.83.9,3.28,3.28,0,0,0,.12,4.38,6.81,6.81,0,0,0,2.43,1.32q1.53.51,3.27,1t3.66,1.14a14.49,14.49,0,0,1,3.42,1.74,8.25,8.25,0,0,1,2.52,2.79,8.81,8.81,0,0,1,1,4.35,7.89,7.89,0,0,1-1.8,5.22,11.39,11.39,0,0,1-4.5,3.27,14.39,14.39,0,0,1-5.52,1.11,21.45,21.45,0,0,1-7.08-1.23A12.26,12.26,0,0,1,224.47,288.25Z"></path><path class="cls-2" d="M270.91,260.53q4.32,0,6.57,1.86a9.44,9.44,0,0,1,3.09,4.95,26.17,26.17,0,0,1,.84,6.87v15.36a3.6,3.6,0,0,1-1,2.61,3.69,3.69,0,0,1-5.16,0,3.6,3.6,0,0,1-1-2.61V274.21a12.34,12.34,0,0,0-.48-3.57,4.89,4.89,0,0,0-1.74-2.55,5.84,5.84,0,0,0-3.6-1,7.52,7.52,0,0,0-3.9,1,6.2,6.2,0,0,0-2.43,2.55,7.75,7.75,0,0,0-.81,3.57v15.36a3.6,3.6,0,0,1-1,2.61,3.69,3.69,0,0,1-5.16,0,3.6,3.6,0,0,1-1-2.61V252.49a3.6,3.6,0,0,1,1-2.61,3.69,3.69,0,0,1,5.16,0,3.6,3.6,0,0,1,1,2.61v14.88l-.9-.18a13.43,13.43,0,0,1,1.5-2.19,13,13,0,0,1,2.34-2.19,12.5,12.5,0,0,1,3.06-1.65A10.34,10.34,0,0,1,270.91,260.53Z"></path><path class="cls-2" d="M291.13,257.23a4.77,4.77,0,0,1-2.88-.66,2.82,2.82,0,0,1-.84-2.34v-1.14a2.67,2.67,0,0,1,.93-2.37,5.14,5.14,0,0,1,2.85-.63,4.9,4.9,0,0,1,2.94.66,2.82,2.82,0,0,1,.84,2.34v1.14a2.71,2.71,0,0,1-.9,2.37A5.26,5.26,0,0,1,291.13,257.23Zm3.66,32.34a3.6,3.6,0,0,1-1,2.61,3.69,3.69,0,0,1-5.16,0,3.6,3.6,0,0,1-1-2.61V264.79a3.6,3.6,0,0,1,1-2.61,3.69,3.69,0,0,1,5.16,0,3.6,3.6,0,0,1,1,2.61Z"></path><path class="cls-2" d="M317.59,260.53a13.67,13.67,0,0,1,7.53,2.13,15.12,15.12,0,0,1,5.28,5.85,20.18,20.18,0,0,1,0,17.31,15.24,15.24,0,0,1-5.22,5.88,13.17,13.17,0,0,1-7.35,2.13,12.82,12.82,0,0,1-4.5-.78,14.41,14.41,0,0,1-3.69-2,11.35,11.35,0,0,1-2.46-2.43,3.86,3.86,0,0,1-.87-2.07l1.86-.78v15.78a3.6,3.6,0,0,1-1,2.61,3.44,3.44,0,0,1-2.58,1.05,3.5,3.5,0,0,1-2.58-1,3.57,3.57,0,0,1-1-2.64V264.79a3.6,3.6,0,0,1,1-2.61,3.69,3.69,0,0,1,5.16,0,3.6,3.6,0,0,1,1,2.61v2.94l-1-.54a3.38,3.38,0,0,1,.84-1.89,12.09,12.09,0,0,1,2.28-2.22,13,13,0,0,1,3.33-1.83A11.11,11.11,0,0,1,317.59,260.53Zm-.9,6.6a8.13,8.13,0,0,0-4.62,1.32A9,9,0,0,0,309,272a11.45,11.45,0,0,0-1.11,5.13,11.69,11.69,0,0,0,1.11,5.13,8.87,8.87,0,0,0,3.09,3.63,8.13,8.13,0,0,0,4.62,1.32,8,8,0,0,0,4.59-1.32,9,9,0,0,0,3.06-3.63,11.69,11.69,0,0,0,1.11-5.13,11.45,11.45,0,0,0-1.11-5.13,9,9,0,0,0-3.06-3.57A8,8,0,0,0,316.69,267.13Z"></path><path class="cls-2" d="M132.73,329.89a2.43,2.43,0,0,1,2.49,2.54v31.85a2.47,2.47,0,0,1-.72,1.82,2.55,2.55,0,0,1-3.57,0,2.5,2.5,0,0,1-.7-1.82v-3.59l1,.05a3.85,3.85,0,0,1-.72,2,9.87,9.87,0,0,1-2,2.17,10.59,10.59,0,0,1-2.94,1.72,9.78,9.78,0,0,1-3.64.68,11.22,11.22,0,0,1-6.17-1.77,12.51,12.51,0,0,1-4.37-4.85,16.47,16.47,0,0,1,0-14.12,12.71,12.71,0,0,1,4.32-4.85,11.28,11.28,0,0,1,10-1.07,11.45,11.45,0,0,1,3.17,1.8,9.75,9.75,0,0,1,2.13,2.32,4.43,4.43,0,0,1,.77,2.32l-1.55.15V332.43a2.51,2.51,0,0,1,.7-1.82A2.41,2.41,0,0,1,132.73,329.89Zm-10.19,32.84a7.15,7.15,0,0,0,4.12-1.19,8.08,8.08,0,0,0,2.77-3.25,11.26,11.26,0,0,0,0-9.28,8.08,8.08,0,0,0-2.77-3.25,7.62,7.62,0,0,0-8.21,0,8,8,0,0,0-2.79,3.25,11.26,11.26,0,0,0,0,9.28,8,8,0,0,0,2.79,3.25A7.19,7.19,0,0,0,122.54,362.73Z"></path><path class="cls-2" d="M162.53,340.57a2.41,2.41,0,0,1,1.77.72,2.51,2.51,0,0,1,.72,1.83v13.12c0,3.47-1,6.17-2.89,8.12s-4.66,2.92-8.19,2.92-6.2-1-8.11-2.92-2.87-4.65-2.87-8.12V343.12a2.54,2.54,0,0,1,.7-1.83,2.38,2.38,0,0,1,1.8-.72,2.42,2.42,0,0,1,1.77.72,2.51,2.51,0,0,1,.72,1.83v13.12a6.83,6.83,0,0,0,1.52,4.85,5.92,5.92,0,0,0,4.47,1.59,6,6,0,0,0,4.54-1.59,6.7,6.7,0,0,0,1.55-4.85V343.12a2.54,2.54,0,0,1,.7-1.83A2.41,2.41,0,0,1,162.53,340.57Zm-.5,4.24v-4.19a5.54,5.54,0,0,0,3.24-.8,2.86,2.86,0,0,0,1.15-2.54,2.63,2.63,0,0,1,.55-1.6,1.86,1.86,0,0,1,1.6-.75,1.66,1.66,0,0,1,1.62.8,3.32,3.32,0,0,1,.42,1.55,7.93,7.93,0,0,1-.92,3.82,6.72,6.72,0,0,1-2.79,2.72A10.41,10.41,0,0,1,162,344.81Z"></path><path class="cls-2" d="M196.92,353.7a13.86,13.86,0,0,1-1.77,7.06,12.91,12.91,0,0,1-4.77,4.82,13.8,13.8,0,0,1-13.45,0,12.88,12.88,0,0,1-4.79-4.82,15,15,0,0,1,0-14.17,13.19,13.19,0,0,1,4.79-4.85,13.66,13.66,0,0,1,13.45,0,13.21,13.21,0,0,1,4.77,4.85A14,14,0,0,1,196.92,353.7Zm-5,0a9.88,9.88,0,0,0-1.1-4.77,8.38,8.38,0,0,0-3-3.19,8,8,0,0,0-8.39,0,8.67,8.67,0,0,0-3,3.19,9.67,9.67,0,0,0-1.12,4.77,9.57,9.57,0,0,0,1.12,4.69,8.47,8.47,0,0,0,3,3.2,8.29,8.29,0,0,0,8.39,0,8.2,8.2,0,0,0,3-3.2A9.78,9.78,0,0,0,191.93,353.7Zm-8.49-15a1.62,1.62,0,0,1-.87-.37,1.06,1.06,0,0,1-.47-1,1.54,1.54,0,0,1,.3-.85l2.94-5a4,4,0,0,1,1-1.18,2.16,2.16,0,0,1,1.43-.52,2.32,2.32,0,0,1,1.74.62,2,2,0,0,1,.55,1.58,2.78,2.78,0,0,1-.25.89,4,4,0,0,1-.55.9l-3.79,4.15a2.5,2.5,0,0,1-1,.62A3.13,3.13,0,0,1,183.44,338.67Zm4.65,6.19v-4.19a5.66,5.66,0,0,0,3.24-.8,2.86,2.86,0,0,0,1.15-2.54,2.63,2.63,0,0,1,.55-1.6,1.85,1.85,0,0,1,1.59-.75,1.69,1.69,0,0,1,1.63.8,3.32,3.32,0,0,1,.42,1.55,8,8,0,0,1-.92,3.82,6.69,6.69,0,0,1-2.8,2.72A10.39,10.39,0,0,1,188.09,344.86Z"></path><path class="cls-2" d="M204.46,337.08a3.33,3.33,0,0,1-2.1-.53,2.16,2.16,0,0,1-.65-1.77V334a2,2,0,0,1,.7-1.75,3.66,3.66,0,0,1,2.1-.49,3.41,3.41,0,0,1,2.14.52,2.06,2.06,0,0,1,.65,1.72v.8a2.1,2.1,0,0,1-.67,1.8A3.71,3.71,0,0,1,204.46,337.08Zm2.54,27.2a2.5,2.5,0,0,1-.7,1.82,2.34,2.34,0,0,1-1.79.73,2.38,2.38,0,0,1-1.77-.73,2.44,2.44,0,0,1-.73-1.82V342.92a2.44,2.44,0,0,1,.73-1.82,2.38,2.38,0,0,1,1.77-.73,2.34,2.34,0,0,1,1.79.73,2.5,2.5,0,0,1,.7,1.82Z"></path><path class="cls-2" d="M235.71,367.18a14.41,14.41,0,0,1-4-.6,9.61,9.61,0,0,1-3.52-1.8,2.91,2.91,0,0,1-.85-1.15,3.37,3.37,0,0,1-.3-1.35,2.05,2.05,0,0,1,.62-1.37,2.24,2.24,0,0,1,1.73-.67,3.23,3.23,0,0,1,1.84.8,12.91,12.91,0,0,0,2.12,1.1,6.22,6.22,0,0,0,2.33.44,9.16,9.16,0,0,0,4.26-1,7.78,7.78,0,0,0,3.05-2.77,7.07,7.07,0,0,0,1.12-3.87,6.73,6.73,0,0,0-1-3.67,6.45,6.45,0,0,0-2.57-2.37,8.27,8.27,0,0,0-6.54-.33,24,24,0,0,0-2.24,1.05,3.79,3.79,0,0,1-1.77.52,3,3,0,0,1-2-.57,2.42,2.42,0,0,1-.84-1.4,4.19,4.19,0,0,1-.08-1.52l1.75-12.78a2.35,2.35,0,0,1,.82-1.42,2.51,2.51,0,0,1,1.67-.57H246a2.29,2.29,0,0,1,2.34,2.34,2.18,2.18,0,0,1-.67,1.65,2.33,2.33,0,0,1-1.67.65H232.61l.55-.45-1.6,11-.75-1.5a4.64,4.64,0,0,1,1.53-1,14,14,0,0,1,2.44-.8,12.49,12.49,0,0,1,8.69,1.15,10.81,10.81,0,0,1,4.12,4.07,11.64,11.64,0,0,1,1.49,5.89,11.43,11.43,0,0,1-1,4.84,12.28,12.28,0,0,1-2.9,3.92,13.32,13.32,0,0,1-4.27,2.59A14.23,14.23,0,0,1,235.71,367.18Z"></path><path class="cls-2" d="M258.92,366.83a2.41,2.41,0,0,1-1.78-.73,2.47,2.47,0,0,1-.72-1.82V332.43a2.49,2.49,0,0,1,.72-1.82,2.44,2.44,0,0,1,1.78-.72,2.37,2.37,0,0,1,1.79.72,2.51,2.51,0,0,1,.7,1.82v31.85a2.5,2.5,0,0,1-.7,1.82A2.34,2.34,0,0,1,258.92,366.83Zm16.27-26.36a2.15,2.15,0,0,1,1.65.8,2.22,2.22,0,0,1-.25,3.44l-15.63,14-.2-5.74,12.58-11.68A2.56,2.56,0,0,1,275.19,340.47Zm.6,26.31a2.31,2.31,0,0,1-1.8-.85L264,355.4l3.79-3.5,9.74,10.54a2.68,2.68,0,0,1,.79,1.89,2.13,2.13,0,0,1-.87,1.77A2.78,2.78,0,0,1,275.79,366.78Z"></path><path class="cls-2" d="M297.05,340.12a8.15,8.15,0,0,1,5.69,1.82,9,9,0,0,1,2.65,4.92l-.8-.25.35-.8a10.32,10.32,0,0,1,2-2.62,11.18,11.18,0,0,1,3.17-2.19,9,9,0,0,1,3.95-.88,8.56,8.56,0,0,1,5.34,1.47,7.72,7.72,0,0,1,2.64,4,18.92,18.92,0,0,1,.75,5.51v13.23a2.5,2.5,0,0,1-.7,1.82,2.35,2.35,0,0,1-1.8.73,2.39,2.39,0,0,1-1.77-.73,2.47,2.47,0,0,1-.72-1.82V351.1a10.07,10.07,0,0,0-.48-3.19,4.53,4.53,0,0,0-1.64-2.32,5.31,5.31,0,0,0-3.22-.88,6.86,6.86,0,0,0-3.47.88,6.22,6.22,0,0,0-2.37,2.32,6.14,6.14,0,0,0-.85,3.19v13.18a2.5,2.5,0,0,1-.7,1.82,2.38,2.38,0,0,1-1.8.73,2.34,2.34,0,0,1-1.79-.73,2.5,2.5,0,0,1-.7-1.82V351.05a10.07,10.07,0,0,0-.48-3.19,4.46,4.46,0,0,0-1.62-2.3,5.33,5.33,0,0,0-3.19-.85,7,7,0,0,0-3.45.85,6,6,0,0,0-2.32,2.3,6.32,6.32,0,0,0-.82,3.19v13.23a2.48,2.48,0,0,1-.73,1.82,2.55,2.55,0,0,1-3.57,0,2.53,2.53,0,0,1-.69-1.82V343.12a2.57,2.57,0,0,1,.69-1.83,2.57,2.57,0,0,1,3.57,0,2.52,2.52,0,0,1,.73,1.83v2.94l-.95.55a8.28,8.28,0,0,1,1.15-2.25,9.47,9.47,0,0,1,2-2.09,11.17,11.17,0,0,1,2.72-1.55A8.64,8.64,0,0,1,297.05,340.12Z"></path><g id="Layer_2-2" data-name="Layer 2"><g id="&#xD1;&#xEB;&#xEE;&#xE9;_1" data-name="&#xD1;&#xEB;&#xEE;&#xE9; 1"><path class="cls-3" d="M191.14,170.59a8.76,8.76,0,1,0,8.75,8.75h0A8.75,8.75,0,0,0,191.14,170.59Zm0,11.93a3.17,3.17,0,1,1,3.16-3.16h0A3.17,3.17,0,0,1,191.14,182.52Z"></path><path class="cls-3" d="M277.33,170.59a8.76,8.76,0,1,0,8.75,8.75h0A8.75,8.75,0,0,0,277.33,170.59Zm0,11.93a3.17,3.17,0,1,1,3.16-3.16h0A3.17,3.17,0,0,1,277.33,182.52Z"></path><path class="cls-3" d="M306.44,134.46l-12.7-9.17a13.2,13.2,0,0,1-3.85-4.39L276.32,95.83a24.57,24.57,0,0,0-21.65-12.9H172.43a24.87,24.87,0,0,0-24.85,24.85V114H119a2.81,2.81,0,0,0,0,5.61h28.59v11.57H98.44a2.8,2.8,0,1,0,0,5.6h49.14V148.4H119a2.8,2.8,0,1,0,0,5.6h28.59v6.26A24.63,24.63,0,0,0,161,182.14c.68.45,2.27,1,7.5,1.6a23.07,23.07,0,0,0,45,1.37h35.51s2.25-.08,6-.18A23.06,23.06,0,0,0,300,183.36a21.46,21.46,0,0,0,6.84-3.43,24.55,24.55,0,0,0,9.8-19.66v-5.84A24.67,24.67,0,0,0,306.44,134.46Zm-115.3,62.35a17.46,17.46,0,1,1,17.45-17.45h0A17.47,17.47,0,0,1,191.14,196.81Zm0-40.52a23.1,23.1,0,0,0-23,21.78,25.94,25.94,0,0,1-4.26-.74l-.09-.05a19.06,19.06,0,0,1-10.57-17V107.78a19.26,19.26,0,0,1,19.25-19.25h61v91H214.17v-.16a23.09,23.09,0,0,0-23-23.07Zm86.19,40.52a17.48,17.48,0,0,1-17.3-15.1h0a17.46,17.46,0,1,1,19.66,14.94A17,17,0,0,1,277.33,196.81Zm33.72-36.54a19,19,0,0,1-7.57,15.21,15.53,15.53,0,0,1-3.18,1.85,23.06,23.06,0,0,0-46,2c-3.16.09-5.13.15-5.45.17h-9.76v-91h15.61a19,19,0,0,1,16.72,10L285,123.58a18.93,18.93,0,0,0,5.51,6.26l12.7,9.15a19.08,19.08,0,0,1,7.89,15.43Z"></path><path class="cls-3" d="M279.9,125l-12.7-23.47a13.48,13.48,0,0,0-11.89-7.09h-7.55a2.8,2.8,0,0,0-2.81,2.8h0v34.35a2.81,2.81,0,0,0,2.81,2.81h33.51a2.82,2.82,0,0,0,2-4.74A21.35,21.35,0,0,1,279.9,125Zm-29.34,3.78V100.07h4.75a7.91,7.91,0,0,1,7,4.12L275,127.68c.21.38.42.76.65,1.13Z"></path></g></g></g></g></svg>