<svg xmlns="http://www.w3.org/2000/svg" viewBox="0 0 450 450"><defs><style>.cls-1{fill:#ededed;}.cls-2{fill:#333;}.cls-3{fill:#00613c;}</style></defs><g id="Layer_2" data-name="Layer 2"><g id="Layer_1-2" data-name="Layer 1"><circle class="cls-1" cx="225" cy="225" r="225"></circle><path class="cls-2" d="M110.89,251.17a4.07,4.07,0,0,1,1.77.45,3.44,3.44,0,0,1,1.41,1.17l14.58,22.44-3-.12,14.94-22.32a3.46,3.46,0,0,1,2.94-1.62,3.77,3.77,0,0,1,2.58,1,3.38,3.38,0,0,1,1.14,2.64v34.74a3.54,3.54,0,0,1-3.72,3.66,3.69,3.69,0,0,1-2.73-1.05,3.54,3.54,0,0,1-1.05-2.61V261.31l2.34.54-12.24,18.66a5,5,0,0,1-1.35,1.14,2.8,2.8,0,0,1-1.65.42,2.69,2.69,0,0,1-1.59-.42,5,5,0,0,1-1.35-1.14l-11.46-18.12,1.56-3.18v30.36a3.72,3.72,0,0,1-1,2.61,3.25,3.25,0,0,1-2.52,1.05,3.18,3.18,0,0,1-2.46-1.05,3.72,3.72,0,0,1-1-2.61V254.83a3.47,3.47,0,0,1,1.11-2.58A3.69,3.69,0,0,1,110.89,251.17Z"></path><path class="cls-2" d="M157.57,257.23a4.77,4.77,0,0,1-2.88-.66,2.82,2.82,0,0,1-.84-2.34v-1.14a2.67,2.67,0,0,1,.93-2.37,5.14,5.14,0,0,1,2.85-.63,4.9,4.9,0,0,1,2.94.66,2.82,2.82,0,0,1,.84,2.34v1.14a2.71,2.71,0,0,1-.9,2.37A5.26,5.26,0,0,1,157.57,257.23Zm3.66,32.34a3.6,3.6,0,0,1-1,2.61,3.69,3.69,0,0,1-5.16,0,3.6,3.6,0,0,1-1-2.61V264.79a3.6,3.6,0,0,1,1-2.61,3.69,3.69,0,0,1,5.16,0,3.6,3.6,0,0,1,1,2.61Z"></path><path class="cls-2" d="M182.23,293.83a17.62,17.62,0,0,1-8.85-2.13,14.71,14.71,0,0,1-5.76-5.79,16.91,16.91,0,0,1-2-8.28,18.2,18.2,0,0,1,2.19-9.21,15.49,15.49,0,0,1,5.73-5.85,14.79,14.79,0,0,1,7.5-2,13.65,13.65,0,0,1,5.79,1.26,15.83,15.83,0,0,1,4.83,3.45,16.77,16.77,0,0,1,3.33,5.07,15.42,15.42,0,0,1,1.23,6.12,3.08,3.08,0,0,1-1.14,2.34,3.82,3.82,0,0,1-2.52.9H169.63l-1.8-6h22l-1.32,1.2v-1.62a5.47,5.47,0,0,0-1.23-3.12,8,8,0,0,0-2.76-2.19,7.86,7.86,0,0,0-3.51-.81,11.37,11.37,0,0,0-3.36.48,6.44,6.44,0,0,0-2.7,1.62,7.86,7.86,0,0,0-1.8,3.06,15.17,15.17,0,0,0-.66,4.86,10.49,10.49,0,0,0,1.35,5.49,9.23,9.23,0,0,0,8,4.59,14,14,0,0,0,3.54-.36,8,8,0,0,0,2.13-.87q.81-.51,1.47-.87a4.58,4.58,0,0,1,2-.54,3,3,0,0,1,3.06,3,3.74,3.74,0,0,1-1.68,2.94,13.92,13.92,0,0,1-4.38,2.31A17.45,17.45,0,0,1,182.23,293.83Zm-9.36-44.16a3,3,0,0,1-2.31-1.08,4.27,4.27,0,0,1-1-3,4.91,4.91,0,0,1,1.8-3.6q1.8-1.68,5.58-1.68a6.48,6.48,0,0,1,2.82.6,15.22,15.22,0,0,1,2.31,1.35q1,.75,2,1.35a3.22,3.22,0,0,0,1.71.6,1.46,1.46,0,0,0,1-.33A.84.84,0,0,0,187,243a2.1,2.1,0,0,1,.3-2.16,2.35,2.35,0,0,1,1.8-.78,3.05,3.05,0,0,1,2.34,1.05,4.15,4.15,0,0,1,1,2.91,5,5,0,0,1-.66,2.28,5.79,5.79,0,0,1-2.16,2.19,7.57,7.57,0,0,1-4,.93,6,6,0,0,1-2.55-.6,28.41,28.41,0,0,1-2.55-1.35q-1.26-.75-2.34-1.35a4.06,4.06,0,0,0-1.92-.6,1.48,1.48,0,0,0-1,.33.81.81,0,0,0-.21.93,2.07,2.07,0,0,1-.3,2.13A2.31,2.31,0,0,1,172.87,249.67Zm8.94,4.44L177.19,258q-.78.66-1.29,1.05a2.74,2.74,0,0,1-1.65.39,1.88,1.88,0,0,1-1.29-.45,1.36,1.36,0,0,1-.51-1.05,3,3,0,0,1,.12-.87,3.31,3.31,0,0,1,.6-1l2.94-3.72a4.44,4.44,0,0,1,3.66-1.74h2.16a4.13,4.13,0,0,1,1.89.36,3.87,3.87,0,0,1,1.35,1.38l2.64,3.72a3.31,3.31,0,0,1,.6,1,3,3,0,0,1,.12.87,1.4,1.4,0,0,1-.48,1.05,1.85,1.85,0,0,1-1.32.45,2.6,2.6,0,0,1-1.62-.39L183.79,258l-5-4.44Z"></path><path class="cls-2" d="M218.17,260.53q4.44,0,6.75,1.86a9.45,9.45,0,0,1,3.18,4.95,25.32,25.32,0,0,1,.87,6.87v15.36a3.6,3.6,0,0,1-1,2.61,3.69,3.69,0,0,1-5.16,0,3.6,3.6,0,0,1-1-2.61V274.21a11.66,11.66,0,0,0-.51-3.57,4.93,4.93,0,0,0-1.83-2.55,6.36,6.36,0,0,0-3.78-1,7.93,7.93,0,0,0-4.05,1,6.57,6.57,0,0,0-2.52,2.55,7.31,7.31,0,0,0-.87,3.57v15.36a3.6,3.6,0,0,1-1,2.61,3.69,3.69,0,0,1-5.16,0,3.6,3.6,0,0,1-1-2.61V264.79a3.6,3.6,0,0,1,1-2.61,3.69,3.69,0,0,1,5.16,0,3.6,3.6,0,0,1,1,2.61v2.58l-.9-.18a11.87,11.87,0,0,1,1.56-2.19,15,15,0,0,1,2.4-2.19,12.2,12.2,0,0,1,3.12-1.65A11,11,0,0,1,218.17,260.53Z"></path><path class="cls-2" d="M267.79,260.53a13.67,13.67,0,0,1,7.53,2.13,15.12,15.12,0,0,1,5.28,5.85,20.18,20.18,0,0,1,0,17.31,15.24,15.24,0,0,1-5.22,5.88,13.17,13.17,0,0,1-7.35,2.13,12.82,12.82,0,0,1-4.5-.78,14.24,14.24,0,0,1-3.69-2,11.35,11.35,0,0,1-2.46-2.43,3.86,3.86,0,0,1-.87-2.07l1.86-.78v15.78a3.6,3.6,0,0,1-1,2.61,3.44,3.44,0,0,1-2.58,1.05,3.48,3.48,0,0,1-2.58-1,3.57,3.57,0,0,1-1-2.64V264.79a3.6,3.6,0,0,1,1-2.61,3.69,3.69,0,0,1,5.16,0,3.6,3.6,0,0,1,1,2.61v2.94l-1-.54a3.38,3.38,0,0,1,.84-1.89,12.09,12.09,0,0,1,2.28-2.22,13,13,0,0,1,3.33-1.83A11.11,11.11,0,0,1,267.79,260.53Zm-.9,6.6a8.13,8.13,0,0,0-4.62,1.32,9,9,0,0,0-3.09,3.57,11.31,11.31,0,0,0-1.11,5.13,11.55,11.55,0,0,0,1.11,5.13,8.87,8.87,0,0,0,3.09,3.63,8.13,8.13,0,0,0,4.62,1.32,8,8,0,0,0,4.59-1.32,9,9,0,0,0,3.06-3.63,11.69,11.69,0,0,0,1.11-5.13,11.45,11.45,0,0,0-1.11-5.13,9,9,0,0,0-3.06-3.57A8,8,0,0,0,266.89,267.13Z"></path><path class="cls-2" d="M304.2,260.53q4.32,0,6.57,1.86a9.44,9.44,0,0,1,3.09,4.95,26.17,26.17,0,0,1,.84,6.87v15.36a3.6,3.6,0,0,1-1,2.61,3.69,3.69,0,0,1-5.16,0,3.6,3.6,0,0,1-1-2.61V274.21a12.34,12.34,0,0,0-.48-3.57,4.89,4.89,0,0,0-1.74-2.55,5.84,5.84,0,0,0-3.6-1,7.52,7.52,0,0,0-3.9,1,6.2,6.2,0,0,0-2.43,2.55,7.75,7.75,0,0,0-.81,3.57v15.36a3.6,3.6,0,0,1-1,2.61,3.69,3.69,0,0,1-5.16,0,3.6,3.6,0,0,1-1-2.61V252.49a3.6,3.6,0,0,1,1-2.61,3.69,3.69,0,0,1,5.16,0,3.6,3.6,0,0,1,1,2.61v14.88l-.9-.18a13.43,13.43,0,0,1,1.5-2.19,13,13,0,0,1,2.34-2.19,12.5,12.5,0,0,1,3.06-1.65A10.38,10.38,0,0,1,304.2,260.53Z"></path><path class="cls-2" d="M328.08,289.57a3.6,3.6,0,0,1-1,2.61,3.69,3.69,0,0,1-5.16,0,3.59,3.59,0,0,1-1-2.61V264.79a3.59,3.59,0,0,1,1-2.61,3.69,3.69,0,0,1,5.16,0,3.6,3.6,0,0,1,1,2.61Zm-3.3-30.48a2.39,2.39,0,0,1-1.23-.51,1.54,1.54,0,0,1-.69-1.47,2.23,2.23,0,0,1,.36-1.14l3.48-6.12a6.2,6.2,0,0,1,1.38-1.68,2.87,2.87,0,0,1,1.92-.72,3.15,3.15,0,0,1,2.46.87,2.86,2.86,0,0,1,.72,2.13,4.53,4.53,0,0,1-.33,1.26A5.23,5.23,0,0,1,332,253l-4.56,5a2.66,2.66,0,0,1-1.32.84A5.69,5.69,0,0,1,324.78,259.09Z"></path><path class="cls-2" d="M163.55,329.89a2.45,2.45,0,0,1,2.5,2.54v31.85a2.48,2.48,0,0,1-.73,1.82,2.55,2.55,0,0,1-3.57,0,2.54,2.54,0,0,1-.7-1.82v-3.59l1,.05a3.85,3.85,0,0,1-.72,2,9.81,9.81,0,0,1-2,2.17,10.65,10.65,0,0,1-3,1.72,9.74,9.74,0,0,1-3.64.68,11.24,11.24,0,0,1-6.17-1.77,12.49,12.49,0,0,1-4.36-4.85,16.38,16.38,0,0,1,0-14.12,12.61,12.61,0,0,1,4.31-4.85,11.31,11.31,0,0,1,10-1.07,11.74,11.74,0,0,1,3.17,1.8,9.69,9.69,0,0,1,2.12,2.32,4.43,4.43,0,0,1,.77,2.32l-1.55.15V332.43a2.55,2.55,0,0,1,.7-1.82A2.41,2.41,0,0,1,163.55,329.89Zm-10.18,32.84a7.2,7.2,0,0,0,4.12-1.19,8.16,8.16,0,0,0,2.77-3.25,11.37,11.37,0,0,0,0-9.28,8.16,8.16,0,0,0-2.77-3.25,7.64,7.64,0,0,0-8.22,0,8.05,8.05,0,0,0-2.79,3.25,11.26,11.26,0,0,0,0,9.28,8.05,8.05,0,0,0,2.79,3.25A7.22,7.22,0,0,0,153.37,362.73Zm5.14-24.36a2.66,2.66,0,0,1-1.82-.62A2.14,2.14,0,0,1,156,336a2,2,0,0,1,.73-1.6,2.63,2.63,0,0,1,1.82-.65H167a2.65,2.65,0,0,1,1.82.65,2.27,2.27,0,0,1,0,3.32,2.68,2.68,0,0,1-1.82.62Z"></path><path class="cls-2" d="M197.94,353.7a13.86,13.86,0,0,1-1.77,7.06,12.91,12.91,0,0,1-4.77,4.82,13.8,13.8,0,0,1-13.45,0,12.88,12.88,0,0,1-4.79-4.82,15.06,15.06,0,0,1,0-14.17,13.19,13.19,0,0,1,4.79-4.85,13.66,13.66,0,0,1,13.45,0,13.21,13.21,0,0,1,4.77,4.85A14,14,0,0,1,197.94,353.7Zm-5,0a9.77,9.77,0,0,0-1.1-4.77,8.38,8.38,0,0,0-3-3.19,8,8,0,0,0-8.38,0,8.61,8.61,0,0,0-3,3.19,9.67,9.67,0,0,0-1.12,4.77,9.57,9.57,0,0,0,1.12,4.69,8.42,8.42,0,0,0,3,3.2,8.27,8.27,0,0,0,8.38,0,8.2,8.2,0,0,0,3-3.2A9.67,9.67,0,0,0,193,353.7Zm-7.49-19.87-4,3.35c-.37.3-.67.54-.92.72a1.94,1.94,0,0,1-1.13.28,1.35,1.35,0,0,1-.92-.33,1,1,0,0,1-.37-.77,1.8,1.8,0,0,1,.1-.6,2,2,0,0,1,.45-.7l2.84-3.4a3,3,0,0,1,2.55-1.24h1.49a2.32,2.32,0,0,1,2.3,1.24l2.7,3.4a3.05,3.05,0,0,1,.4.67,2,2,0,0,1,.09.63,1,1,0,0,1-.34.77,1.28,1.28,0,0,1-.9.33,1.88,1.88,0,0,1-1.15-.28l-.95-.77-4.29-3.65Zm2.3-7.34a7.33,7.33,0,0,1,1.7-1,5.32,5.32,0,0,1,2.19-.4,5.54,5.54,0,0,1,2.95.65,3.28,3.28,0,0,1,1.42,1.62,5.07,5.07,0,0,1,.38,1.82,3.32,3.32,0,0,1-.3,1.47,7.69,7.69,0,0,1-.85,1.33,10.8,10.8,0,0,0-.73.89,1.85,1.85,0,0,0-.32.85,1.06,1.06,0,0,1-.42.85,1.6,1.6,0,0,1-1,.35,1.68,1.68,0,0,1-1.05-.35,1.07,1.07,0,0,1-.44-.9,2.63,2.63,0,0,1,.19-.95,4.37,4.37,0,0,1,.6-1l.85-1.15a1.8,1.8,0,0,0,.4-1.05,1.18,1.18,0,0,0-.52-1,2.06,2.06,0,0,0-1.23-.38,2.41,2.41,0,0,0-1.17.28,6.41,6.41,0,0,0-1,.62,1.76,1.76,0,0,1-.9.27,1.42,1.42,0,0,1-1-.52,1.2,1.2,0,0,1-.35-1.22A2.25,2.25,0,0,1,187.76,326.49Z"></path><path class="cls-2" d="M205.48,337.08a3.37,3.37,0,0,1-2.1-.53,2.16,2.16,0,0,1-.64-1.77V334a2,2,0,0,1,.69-1.75,3.66,3.66,0,0,1,2.1-.49,3.46,3.46,0,0,1,2.15.52,2.09,2.09,0,0,1,.65,1.72v.8a2.1,2.1,0,0,1-.68,1.8A3.71,3.71,0,0,1,205.48,337.08Zm2.55,27.2a2.54,2.54,0,0,1-.7,1.82,2.55,2.55,0,0,1-3.57,0,2.47,2.47,0,0,1-.72-1.82V342.92a2.47,2.47,0,0,1,.72-1.82,2.55,2.55,0,0,1,3.57,0,2.54,2.54,0,0,1,.7,1.82Z"></path><path class="cls-2" d="M228.29,340.87H240a2.29,2.29,0,0,1,2.35,2.35,2.14,2.14,0,0,1-.67,1.59,2.3,2.3,0,0,1-1.68.65H228.29a2.27,2.27,0,0,1-1.67-.67,2.2,2.2,0,0,1-.67-1.62,2.18,2.18,0,0,1,.67-1.65A2.33,2.33,0,0,1,228.29,340.87Zm5.24-6.49a2.37,2.37,0,0,1,1.8.73,2.5,2.5,0,0,1,.7,1.82v23.16a3,3,0,0,0,.3,1.45,1.55,1.55,0,0,0,.82.74,2.87,2.87,0,0,0,1.08.2,2.16,2.16,0,0,0,1-.2,2.41,2.41,0,0,1,1-.19,1.48,1.48,0,0,1,1.1.54,2.17,2.17,0,0,1,.5,1.5,2.21,2.21,0,0,1-1.3,1.95,5.48,5.48,0,0,1-2.79.75,15.74,15.74,0,0,1-2-.15,6.09,6.09,0,0,1-2.22-.75,4.49,4.49,0,0,1-1.77-1.92,8,8,0,0,1-.7-3.72V336.93a2.47,2.47,0,0,1,.72-1.82A2.39,2.39,0,0,1,233.53,334.38Z"></path><path class="cls-2" d="M250.41,366.83a2.35,2.35,0,0,1-1.8-.73,2.5,2.5,0,0,1-.7-1.82V343.12a2.54,2.54,0,0,1,.7-1.83,2.38,2.38,0,0,1,1.8-.72,2.44,2.44,0,0,1,1.77.72,2.51,2.51,0,0,1,.72,1.83v5.59l-.5-2.15a8.81,8.81,0,0,1,1.23-2.59,9.13,9.13,0,0,1,2-2.1,8.77,8.77,0,0,1,2.57-1.4,9,9,0,0,1,3-.5,3.71,3.71,0,0,1,2.24.7,2.09,2.09,0,0,1,.95,1.75,2.5,2.5,0,0,1-.7,2,2.23,2.23,0,0,1-1.54.62,3.33,3.33,0,0,1-1.45-.32,3.86,3.86,0,0,0-1.65-.33,4.9,4.9,0,0,0-2.15.55,6.3,6.3,0,0,0-2,1.63,7.94,7.94,0,0,0-1.42,2.52,9.41,9.41,0,0,0-.53,3.24v12a2.47,2.47,0,0,1-.72,1.82A2.41,2.41,0,0,1,250.41,366.83Z"></path><path class="cls-2" d="M289.49,340.17a2.38,2.38,0,0,1,1.77.73,2.44,2.44,0,0,1,.73,1.82v21.56a2.44,2.44,0,0,1-.73,1.82,2.55,2.55,0,0,1-3.57,0,2.53,2.53,0,0,1-.69-1.82v-3.59l1,.15a3.71,3.71,0,0,1-.72,2,9.67,9.67,0,0,1-2,2.13,11.1,11.1,0,0,1-2.95,1.69,9.74,9.74,0,0,1-3.64.68,11.17,11.17,0,0,1-6.19-1.77,12.51,12.51,0,0,1-4.34-4.87,16.44,16.44,0,0,1,0-14.15,12.31,12.31,0,0,1,4.31-4.82,11,11,0,0,1,6.07-1.75,11.15,11.15,0,0,1,4,.7,11.74,11.74,0,0,1,3.17,1.8,9.14,9.14,0,0,1,2.09,2.32,4.48,4.48,0,0,1,.75,2.32l-1.54.15v-4.54a2.57,2.57,0,0,1,.69-1.8A2.36,2.36,0,0,1,289.49,340.17Zm-10.18,22.56a7.2,7.2,0,0,0,4.12-1.19,8.15,8.15,0,0,0,2.77-3.27,11.32,11.32,0,0,0,0-9.26,8.16,8.16,0,0,0-2.77-3.25,7.64,7.64,0,0,0-8.22,0,8.05,8.05,0,0,0-2.79,3.25,11.22,11.22,0,0,0,0,9.26,8.08,8.08,0,0,0,2.77,3.27A7.15,7.15,0,0,0,279.31,362.73Zm-4.25-32.39a8,8,0,0,1,1.7-1,5.34,5.34,0,0,1,2.2-.4,5.62,5.62,0,0,1,2.94.65,3.31,3.31,0,0,1,1.43,1.62,5.09,5.09,0,0,1,.37,1.82,3.4,3.4,0,0,1-.3,1.48,7.43,7.43,0,0,1-.85,1.32,7.84,7.84,0,0,0-.72.9,1.94,1.94,0,0,0-.33.85,1.05,1.05,0,0,1-.42.84,1.51,1.51,0,0,1-1,.35,1.62,1.62,0,0,1-1.05-.35,1.08,1.08,0,0,1-.45-.89,2.61,2.61,0,0,1,.2-1,3.79,3.79,0,0,1,.6-1l.85-1.15a1.82,1.82,0,0,0,.4-1.05,1.19,1.19,0,0,0-.53-1,2,2,0,0,0-1.22-.37,2.49,2.49,0,0,0-1.17.27,6.51,6.51,0,0,0-1,.62,1.8,1.8,0,0,1-.9.28,1.44,1.44,0,0,1-1.05-.53,1.18,1.18,0,0,1-.34-1.22A2.25,2.25,0,0,1,275.06,330.34Z"></path><g id="Layer_2-2" data-name="Layer 2"><g id="&#xD1;&#xEB;&#xEE;&#xE9;_1" data-name="&#xD1;&#xEB;&#xEE;&#xE9; 1"><path class="cls-3" d="M213.64,153.06a11.41,11.41,0,0,1-3.68-4.94,8.2,8.2,0,0,1-.23-1c-.07-.38-.14-.76-.25-1.16a2.3,2.3,0,0,0-4.44,1.21h0c.06.23.11.52.17.81a10.93,10.93,0,0,0,.46,1.79,16.22,16.22,0,0,0,5.17,6.9c3.4,2.63,8.17,3.92,12.68,4.36v7.13a2.29,2.29,0,0,0,4.58,0v-7c.45,0,.9,0,1.32-.06,3.89-.23,11-1.45,14.75-6.89,3.28-4.71,3.58-13.53-.93-18.27-3.83-4-9.6-5.62-15.14-6.76V108.47a20.32,20.32,0,0,1,6.61,1.64c3.64,1.65,5.77,4.27,6.38,7.81a2.29,2.29,0,1,0,4.51-.77h0a14.76,14.76,0,0,0-9-11.21,25,25,0,0,0-8.51-2.06v-7a2.29,2.29,0,1,0-4.58,0v7a26.56,26.56,0,0,0-11.5,3.35c-4.56,2.78-6.76,8.66-5.47,14.64.93,4.27,4.08,7.45,9.11,9.19a60.49,60.49,0,0,0,7.86,1.93v23.4C219.82,156,216.08,155,213.64,153.06Zm26.28-13.89c2.63,2.75,2.87,9.05.48,12.5-2.77,4-8.8,4.78-11.26,4.94l-1,0V133.93C232.76,134.93,237.17,136.28,239.92,139.17Zm-22.75-12.43c-3.49-1.21-5.55-3.16-6.12-5.82-.74-3.39,0-7.72,3.37-9.76a21.72,21.72,0,0,1,9.11-2.68v19.84A48.43,48.43,0,0,1,217.17,126.74Z"></path><path class="cls-3" d="M166.25,162.94c.16-8.33,1.65-19.11,4.62-26.51l-8.7,7.07A64.62,64.62,0,0,1,225.8,68,64,64,0,0,1,255.17,75a2.29,2.29,0,1,0,2.09-4.08h0a68.39,68.39,0,0,0-31.45-7.57,69.19,69.19,0,0,0-68,81.81L146.16,145C153.08,149,160.94,156.51,166.25,162.94Z"></path><path class="cls-3" d="M280.12,123.16l7.92-7.9a64.61,64.61,0,0,1-97.19,71.57,2.29,2.29,0,1,0-2.48,3.85h0a69.19,69.19,0,0,0,103.85-77.52l11.62-1c-7.29-3.23-15.87-9.92-21.79-15.77C282.72,104.62,282.33,115.5,280.12,123.16Z"></path></g></g></g></g></svg>