<svg xmlns="http://www.w3.org/2000/svg" viewBox="0 0 450 450"><defs><style>.cls-1{fill:#ededed;}.cls-2{fill:#333;}.cls-3{fill:#00613c;}</style></defs><g id="Layer_2" data-name="Layer 2"><g id="Layer_1-2" data-name="Layer 1"><circle class="cls-1" cx="225" cy="225" r="225"></circle><path class="cls-2" d="M50,250.45a12.54,12.54,0,0,1,5.85,1.35,13.38,13.38,0,0,1,4.44,3.69,17.71,17.71,0,0,1,2.82,5.25,18.78,18.78,0,0,1,1,6.09,32.63,32.63,0,0,1-.45,4.92,33.22,33.22,0,0,1-1.59,6.06A27.47,27.47,0,0,1,58.87,284a23.21,23.21,0,0,1-5.19,5.4A22.44,22.44,0,0,1,46,293.05a5.69,5.69,0,0,1-1.38.18,4.35,4.35,0,0,1-2.49-.75A2.92,2.92,0,0,1,41,289.87a3.36,3.36,0,0,1,.87-2.34,4.88,4.88,0,0,1,2.31-1.38,19.4,19.4,0,0,0,5.37-2.64,18.71,18.71,0,0,0,4.53-4.44,15,15,0,0,0,2.58-5.94l1.62.06a26.08,26.08,0,0,1-2,2.16,11.54,11.54,0,0,1-3,2.07,9.5,9.5,0,0,1-4.23.87,10.89,10.89,0,0,1-4.65-1.08,14.83,14.83,0,0,1-7.23-7.41A13.15,13.15,0,0,1,36,264.37a13.44,13.44,0,0,1,1.89-7.05,14.15,14.15,0,0,1,5.07-5A13.65,13.65,0,0,1,50,250.45Zm0,6.6a6.4,6.4,0,0,0-3.42,1,6.86,6.86,0,0,0-2.46,2.61,8.2,8.2,0,0,0,0,7.47,6.81,6.81,0,0,0,2.46,2.64,6.63,6.63,0,0,0,6.87,0,6.89,6.89,0,0,0,2.43-2.64,8.2,8.2,0,0,0,0-7.47A6.94,6.94,0,0,0,53.44,258,6.36,6.36,0,0,0,50,257.05Z"></path><path class="cls-2" d="M81.67,250.45a12.54,12.54,0,0,1,5.85,1.35A13.38,13.38,0,0,1,92,255.49a17.71,17.71,0,0,1,2.82,5.25,18.78,18.78,0,0,1,1,6.09,32.63,32.63,0,0,1-.45,4.92,33.22,33.22,0,0,1-1.59,6.06A27.47,27.47,0,0,1,90.55,284a23.21,23.21,0,0,1-5.19,5.4,22.44,22.44,0,0,1-7.71,3.66,5.69,5.69,0,0,1-1.38.18,4.35,4.35,0,0,1-2.49-.75,2.92,2.92,0,0,1-1.11-2.61,3.36,3.36,0,0,1,.87-2.34,4.88,4.88,0,0,1,2.31-1.38,19.4,19.4,0,0,0,5.37-2.64,18.71,18.71,0,0,0,4.53-4.44,15,15,0,0,0,2.58-5.94l1.62.06a26.08,26.08,0,0,1-2,2.16,11.54,11.54,0,0,1-3,2.07,9.5,9.5,0,0,1-4.23.87,10.89,10.89,0,0,1-4.65-1.08,14.83,14.83,0,0,1-7.23-7.41,13.15,13.15,0,0,1-1.14-5.43,13.44,13.44,0,0,1,1.89-7.05,14.15,14.15,0,0,1,5.07-5A13.65,13.65,0,0,1,81.67,250.45Zm0,6.6a6.4,6.4,0,0,0-3.42,1,6.86,6.86,0,0,0-2.46,2.61,8.2,8.2,0,0,0,0,7.47,6.81,6.81,0,0,0,2.46,2.64,6.63,6.63,0,0,0,6.87,0,6.89,6.89,0,0,0,2.43-2.64,8.2,8.2,0,0,0,0-7.47A6.94,6.94,0,0,0,85.12,258,6.36,6.36,0,0,0,81.67,257.05Z"></path><path class="cls-2" d="M108.61,274a8.65,8.65,0,0,1-5.1-1.56,10.59,10.59,0,0,1-3.48-4.2,13.48,13.48,0,0,1-1.26-5.88,13.62,13.62,0,0,1,1.26-5.94,10.59,10.59,0,0,1,3.48-4.2,9.17,9.17,0,0,1,10.23,0,10.46,10.46,0,0,1,3.42,4.2,13.9,13.9,0,0,1,1.23,5.94,13,13,0,0,1-1.32,5.88,11.18,11.18,0,0,1-3.51,4.2A8.32,8.32,0,0,1,108.61,274Zm0-5.34a3.06,3.06,0,0,0,2.79-1.8,9.25,9.25,0,0,0,1-4.5,9.49,9.49,0,0,0-1-4.5,3,3,0,0,0-2.82-1.8,3.13,3.13,0,0,0-2.82,1.8,9,9,0,0,0-1,4.5,9.25,9.25,0,0,0,1,4.5A3.11,3.11,0,0,0,108.61,268.69Zm.72,24.66a3.46,3.46,0,0,1-2-.81,2.54,2.54,0,0,1-1.08-2.13,3.67,3.67,0,0,1,.6-1.8l23.88-36.06a3.07,3.07,0,0,1,2.46-1.44,3.48,3.48,0,0,1,2.07.78,2.54,2.54,0,0,1,1.05,2.16,3.67,3.67,0,0,1-.6,1.8l-23.88,36.06A3.07,3.07,0,0,1,109.33,293.35Zm25,.48a8.46,8.46,0,0,1-5-1.56,11.07,11.07,0,0,1-3.54-4.2,13,13,0,0,1-1.32-5.88,13.62,13.62,0,0,1,1.26-5.94,10.59,10.59,0,0,1,3.48-4.2,9.17,9.17,0,0,1,10.23,0,10.46,10.46,0,0,1,3.42,4.2,13.9,13.9,0,0,1,1.23,5.94,13,13,0,0,1-1.32,5.88,11.18,11.18,0,0,1-3.51,4.2A8.32,8.32,0,0,1,134.35,293.83Zm0-5.34a3.06,3.06,0,0,0,2.79-1.8,9.25,9.25,0,0,0,1-4.5,9.49,9.49,0,0,0-1-4.5,3,3,0,0,0-2.82-1.8,3.13,3.13,0,0,0-2.82,1.8,9,9,0,0,0-1,4.5,9.25,9.25,0,0,0,1,4.5A3.11,3.11,0,0,0,134.35,288.49Z"></path><path class="cls-2" d="M180.85,260.53a13.67,13.67,0,0,1,7.53,2.13,15.12,15.12,0,0,1,5.28,5.85,20.18,20.18,0,0,1,0,17.31,15.24,15.24,0,0,1-5.22,5.88,13.17,13.17,0,0,1-7.35,2.13,12.82,12.82,0,0,1-4.5-.78,14.41,14.41,0,0,1-3.69-2,11.35,11.35,0,0,1-2.46-2.43,3.86,3.86,0,0,1-.87-2.07l1.86-.78v15.78a3.6,3.6,0,0,1-1,2.61,3.44,3.44,0,0,1-2.58,1.05,3.5,3.5,0,0,1-2.58-1,3.57,3.57,0,0,1-1-2.64V264.79a3.6,3.6,0,0,1,1-2.61,3.69,3.69,0,0,1,5.16,0,3.6,3.6,0,0,1,1,2.61v2.94l-1-.54a3.38,3.38,0,0,1,.84-1.89,12.09,12.09,0,0,1,2.28-2.22,13,13,0,0,1,3.33-1.83A11.11,11.11,0,0,1,180.85,260.53Zm-.9,6.6a8.13,8.13,0,0,0-4.62,1.32,9,9,0,0,0-3.09,3.57,11.45,11.45,0,0,0-1.11,5.13,11.69,11.69,0,0,0,1.11,5.13,8.87,8.87,0,0,0,3.09,3.63,8.13,8.13,0,0,0,4.62,1.32,8,8,0,0,0,4.59-1.32,9,9,0,0,0,3.06-3.63,11.69,11.69,0,0,0,1.11-5.13A11.45,11.45,0,0,0,187.6,272a9,9,0,0,0-3.06-3.57A8,8,0,0,0,180,267.13Z"></path><path class="cls-2" d="M217.27,260.53q4.32,0,6.57,1.86a9.44,9.44,0,0,1,3.09,4.95,26.17,26.17,0,0,1,.84,6.87v15.36a3.6,3.6,0,0,1-1,2.61,3.69,3.69,0,0,1-5.16,0,3.6,3.6,0,0,1-1-2.61V274.21a12.34,12.34,0,0,0-.48-3.57,4.89,4.89,0,0,0-1.74-2.55,5.84,5.84,0,0,0-3.6-1,7.52,7.52,0,0,0-3.9,1,6.2,6.2,0,0,0-2.43,2.55,7.75,7.75,0,0,0-.81,3.57v15.36a3.6,3.6,0,0,1-1,2.61,3.69,3.69,0,0,1-5.16,0,3.6,3.6,0,0,1-1-2.61V252.49a3.6,3.6,0,0,1,1-2.61,3.69,3.69,0,0,1,5.16,0,3.6,3.6,0,0,1,1,2.61v14.88l-.9-.18a13.43,13.43,0,0,1,1.5-2.19,13,13,0,0,1,2.34-2.19,12.5,12.5,0,0,1,3.06-1.65A10.34,10.34,0,0,1,217.27,260.53Z"></path><path class="cls-2" d="M260.35,260.53a3.5,3.5,0,0,1,2.58,1,3.57,3.57,0,0,1,1,2.64v25.38a3.6,3.6,0,0,1-1,2.61,3.69,3.69,0,0,1-5.16,0,3.6,3.6,0,0,1-1-2.61v-2.94l1.32.54a3.38,3.38,0,0,1-.84,1.89,11.43,11.43,0,0,1-2.28,2.19,14,14,0,0,1-3.39,1.83,11.68,11.68,0,0,1-4.23.75,13.72,13.72,0,0,1-7.5-2.13,15,15,0,0,1-5.31-5.88,20.12,20.12,0,0,1,0-17.28,15.15,15.15,0,0,1,5.25-5.88,13.22,13.22,0,0,1,7.32-2.13,13.86,13.86,0,0,1,4.74.78,14.16,14.16,0,0,1,3.75,2,11.35,11.35,0,0,1,2.46,2.43,3.86,3.86,0,0,1,.87,2.07l-2.16.78v-4.38a3.6,3.6,0,0,1,1-2.61A3.44,3.44,0,0,1,260.35,260.53Zm-12.12,26.7a8.13,8.13,0,0,0,4.62-1.32,8.91,8.91,0,0,0,3.09-3.6,11.5,11.5,0,0,0,1.11-5.1,11.64,11.64,0,0,0-1.11-5.16,8.91,8.91,0,0,0-3.09-3.6,8.13,8.13,0,0,0-4.62-1.32,8,8,0,0,0-4.56,1.32,8.91,8.91,0,0,0-3.09,3.6,11.64,11.64,0,0,0-1.11,5.16,11.5,11.5,0,0,0,1.11,5.1,8.91,8.91,0,0,0,3.09,3.6A8,8,0,0,0,248.23,287.23Zm-5.46-38.58a9.07,9.07,0,0,1,2-1.26,6.66,6.66,0,0,1,2.7-.48,7.36,7.36,0,0,1,3.87.84,4.3,4.3,0,0,1,1.83,2.07,6.37,6.37,0,0,1,.48,2.31,5,5,0,0,1-.27,1.71,5.71,5.71,0,0,1-.87,1.53q-.6.72-1,1.26a1.7,1.7,0,0,0-.42,1,1.48,1.48,0,0,1-.6,1.2,2.23,2.23,0,0,1-1.44.48,2.37,2.37,0,0,1-1.41-.45,1.43,1.43,0,0,1-.63-1.23,2.7,2.7,0,0,1,.27-1.17,8.1,8.1,0,0,1,.69-1.17q.48-.66.93-1.38a2.43,2.43,0,0,0,.45-1.2,1.38,1.38,0,0,0-.6-1.2,2.45,2.45,0,0,0-1.44-.42,2.82,2.82,0,0,0-1.38.33q-.6.33-1.14.69a1.92,1.92,0,0,1-1.05.33,2,2,0,0,1-1.41-.75,1.63,1.63,0,0,1-.48-1.71A2.88,2.88,0,0,1,242.77,248.65Z"></path><path class="cls-2" d="M287.7,260.53q4.44,0,6.75,1.86a9.47,9.47,0,0,1,3.19,4.95,25.72,25.72,0,0,1,.87,6.87v15.36a3.64,3.64,0,0,1-1,2.61,3.69,3.69,0,0,1-5.16,0,3.56,3.56,0,0,1-1-2.61V274.21a12,12,0,0,0-.51-3.57,5,5,0,0,0-1.83-2.55,6.38,6.38,0,0,0-3.78-1,7.91,7.91,0,0,0-4.05,1,6.5,6.5,0,0,0-2.52,2.55,7.21,7.21,0,0,0-.88,3.57v15.36a3.59,3.59,0,0,1-1,2.61,3.46,3.46,0,0,1-2.58,1.05,3.41,3.41,0,0,1-2.58-1.05,3.56,3.56,0,0,1-1-2.61V264.79a3.56,3.56,0,0,1,1-2.61,3.41,3.41,0,0,1,2.58-1.05,3.46,3.46,0,0,1,2.58,1.05,3.59,3.59,0,0,1,1,2.61v2.58l-.89-.18a11,11,0,0,1,1.56-2.19,14.16,14.16,0,0,1,2.4-2.19,12,12,0,0,1,3.12-1.65A10.93,10.93,0,0,1,287.7,260.53Z"></path><path class="cls-2" d="M337.57,260.53q4.32,0,6.57,1.86a9.5,9.5,0,0,1,3.09,4.95,26.6,26.6,0,0,1,.84,6.87v15.36a3.6,3.6,0,0,1-1,2.61,3.69,3.69,0,0,1-5.16,0,3.56,3.56,0,0,1-1-2.61V274.21a12.69,12.69,0,0,0-.48-3.57,4.89,4.89,0,0,0-1.74-2.55,5.84,5.84,0,0,0-3.6-1,7.52,7.52,0,0,0-3.9,1,6.2,6.2,0,0,0-2.43,2.55,7.75,7.75,0,0,0-.81,3.57v15.36a3.6,3.6,0,0,1-1,2.61,3.69,3.69,0,0,1-5.16,0,3.56,3.56,0,0,1-1-2.61V252.49a3.56,3.56,0,0,1,1-2.61,3.69,3.69,0,0,1,5.16,0,3.6,3.6,0,0,1,1,2.61v14.88l-.9-.18a13.43,13.43,0,0,1,1.5-2.19,12.66,12.66,0,0,1,2.34-2.19,12.32,12.32,0,0,1,3.06-1.65A10.34,10.34,0,0,1,337.57,260.53Z"></path><path class="cls-2" d="M385.51,277.21a16.87,16.87,0,0,1-2.19,8.67,15.72,15.72,0,0,1-5.88,5.85,17.26,17.26,0,0,1-16.5,0,15.72,15.72,0,0,1-5.88-5.85,18.26,18.26,0,0,1,0-17.34,16,16,0,0,1,5.88-5.88,17,17,0,0,1,16.5,0,16,16,0,0,1,5.88,5.88A16.87,16.87,0,0,1,385.51,277.21Zm-7.2,0a11,11,0,0,0-1.23-5.31,9.23,9.23,0,0,0-3.3-3.51,9,9,0,0,0-9.18,0,9.15,9.15,0,0,0-3.3,3.51,10.91,10.91,0,0,0-1.23,5.31,10.78,10.78,0,0,0,1.23,5.25,9.15,9.15,0,0,0,3.3,3.51,9,9,0,0,0,9.18,0,9.23,9.23,0,0,0,3.3-3.51A10.89,10.89,0,0,0,378.31,277.21ZM370.09,252l-4.62,3.84c-.52.44-1,.79-1.29,1a2.79,2.79,0,0,1-1.65.39,1.86,1.86,0,0,1-1.29-.45,1.36,1.36,0,0,1-.51-1,2.65,2.65,0,0,1,.12-.87,3.11,3.11,0,0,1,.6-1l2.94-3.72a4.44,4.44,0,0,1,3.66-1.74h2.16a4.16,4.16,0,0,1,1.89.36,4,4,0,0,1,1.35,1.38l2.64,3.72a3.31,3.31,0,0,1,.6,1,3,3,0,0,1,.12.87,1.4,1.4,0,0,1-.48,1,1.87,1.87,0,0,1-1.32.45,2.56,2.56,0,0,1-1.62-.39l-1.32-1-5-4.44Zm7.5-2.82a2.68,2.68,0,0,1-.66-.09,3.52,3.52,0,0,1-.72-.27l-6-3.18a4.7,4.7,0,0,1-1.65-1.44,3,3,0,0,1-.57-1.74,2.52,2.52,0,0,1,1.08-2.16,3.58,3.58,0,0,1,2.1-.78,3.43,3.43,0,0,1,1.59.39,7,7,0,0,1,1.35.93l5.16,4.56a2.23,2.23,0,0,1,.84,1.62,2,2,0,0,1-.69,1.56A2.73,2.73,0,0,1,377.59,249.19Z"></path><path class="cls-2" d="M393.42,257.23a4.79,4.79,0,0,1-2.88-.66,2.82,2.82,0,0,1-.84-2.34v-1.14a2.65,2.65,0,0,1,.94-2.37,5.1,5.1,0,0,1,2.85-.63,4.88,4.88,0,0,1,2.93.66,2.79,2.79,0,0,1,.85,2.34v1.14a2.74,2.74,0,0,1-.9,2.37A5.3,5.3,0,0,1,393.42,257.23Zm3.66,32.34a3.63,3.63,0,0,1-1,2.61,3.46,3.46,0,0,1-2.58,1.05,3.41,3.41,0,0,1-2.58-1.05,3.56,3.56,0,0,1-1-2.61V264.79a3.56,3.56,0,0,1,1-2.61,3.41,3.41,0,0,1,2.58-1.05,3.46,3.46,0,0,1,2.58,1.05,3.63,3.63,0,0,1,1,2.61Z"></path><path class="cls-2" d="M139.29,340.12a8.52,8.52,0,0,1,5.34,1.47,7.78,7.78,0,0,1,2.67,4,18.39,18.39,0,0,1,.78,5.49v13.23a2.44,2.44,0,0,1-.73,1.82,2.55,2.55,0,0,1-3.57,0,2.53,2.53,0,0,1-.69-1.82V351.05a10.07,10.07,0,0,0-.48-3.19,4.46,4.46,0,0,0-1.65-2.3,5.53,5.53,0,0,0-3.27-.85,7,7,0,0,0-3.46.85,6,6,0,0,0-2.35,2.3,6.32,6.32,0,0,0-.82,3.19v13.23a2.48,2.48,0,0,1-.73,1.82,2.55,2.55,0,0,1-3.57,0,2.54,2.54,0,0,1-.7-1.82V332.43a2.55,2.55,0,0,1,.7-1.82,2.57,2.57,0,0,1,3.57,0,2.5,2.5,0,0,1,.73,1.82v13.63l-.9.5a8.1,8.1,0,0,1,1.17-2.25,10.11,10.11,0,0,1,2-2.09,10.47,10.47,0,0,1,2.72-1.52A8.69,8.69,0,0,1,139.29,340.12Z"></path><path class="cls-2" d="M176.33,340.17a2.38,2.38,0,0,1,1.77.73,2.48,2.48,0,0,1,.73,1.82v21.56a2.48,2.48,0,0,1-.73,1.82,2.55,2.55,0,0,1-3.57,0,2.54,2.54,0,0,1-.7-1.82v-3.59l1,.15a3.71,3.71,0,0,1-.72,2,9.67,9.67,0,0,1-2,2.13,11.26,11.26,0,0,1-2.95,1.69,9.74,9.74,0,0,1-3.64.68,11.17,11.17,0,0,1-6.19-1.77,12.51,12.51,0,0,1-4.34-4.87,16.44,16.44,0,0,1,0-14.15,12.31,12.31,0,0,1,4.31-4.82A11,11,0,0,1,165.4,340a11.15,11.15,0,0,1,4,.7,11.74,11.74,0,0,1,3.17,1.8,9.14,9.14,0,0,1,2.09,2.32,4.48,4.48,0,0,1,.75,2.32l-1.55.15v-4.54a2.57,2.57,0,0,1,.7-1.8A2.36,2.36,0,0,1,176.33,340.17Zm-10.18,22.56a7.2,7.2,0,0,0,4.12-1.19,8.15,8.15,0,0,0,2.77-3.27,11.32,11.32,0,0,0,0-9.26,8.16,8.16,0,0,0-2.77-3.25,7.64,7.64,0,0,0-8.22,0,8.05,8.05,0,0,0-2.79,3.25,11.22,11.22,0,0,0,0,9.26,8.08,8.08,0,0,0,2.77,3.27A7.15,7.15,0,0,0,166.15,362.73Zm.4-24.21a1.91,1.91,0,0,1-.58-.1,1.49,1.49,0,0,1-.57-.3l-4.64-2.94a3.75,3.75,0,0,1-1.1-1,2,2,0,0,1-.4-1.18,1.87,1.87,0,0,1,.75-1.57,2.51,2.51,0,0,1,1.54-.57,2.34,2.34,0,0,1,1.2.32,4.77,4.77,0,0,1,.95.73l4,4a1.69,1.69,0,0,1,.6,1.15,1.39,1.39,0,0,1-.47,1.07A1.85,1.85,0,0,1,166.55,338.52Z"></path><path class="cls-2" d="M187.91,337.08a3.37,3.37,0,0,1-2.1-.53,2.16,2.16,0,0,1-.65-1.77V334a2,2,0,0,1,.7-1.75,3.66,3.66,0,0,1,2.1-.49,3.46,3.46,0,0,1,2.15.52,2.09,2.09,0,0,1,.65,1.72v.8a2.1,2.1,0,0,1-.68,1.8A3.71,3.71,0,0,1,187.91,337.08Zm2.55,27.2a2.54,2.54,0,0,1-.7,1.82,2.55,2.55,0,0,1-3.57,0,2.48,2.48,0,0,1-.73-1.82V342.92a2.48,2.48,0,0,1,.73-1.82,2.55,2.55,0,0,1,3.57,0,2.54,2.54,0,0,1,.7,1.82Z"></path><path class="cls-2" d="M216.46,364.28a2.47,2.47,0,0,1-.72,1.82,2.51,2.51,0,0,1-3.54,0,2.44,2.44,0,0,1-.73-1.82V332.43a2.44,2.44,0,0,1,.75-1.82,2.51,2.51,0,0,1,1.8-.72,2.31,2.31,0,0,1,1.77.72,2.57,2.57,0,0,1,.67,1.82Z"></path><path class="cls-2" d="M248.86,353.7a13.86,13.86,0,0,1-1.77,7.06,12.91,12.91,0,0,1-4.77,4.82,13.8,13.8,0,0,1-13.45,0,12.81,12.81,0,0,1-4.79-4.82,15,15,0,0,1,0-14.17,13.24,13.24,0,0,1,23,0A14,14,0,0,1,248.86,353.7Zm-5,0a9.88,9.88,0,0,0-1.1-4.77,8.38,8.38,0,0,0-3-3.19,8,8,0,0,0-8.39,0,8.58,8.58,0,0,0-3,3.19,9.67,9.67,0,0,0-1.13,4.77,9.57,9.57,0,0,0,1.13,4.69,8.39,8.39,0,0,0,3,3.2,8.29,8.29,0,0,0,8.39,0,8.2,8.2,0,0,0,3-3.2A9.78,9.78,0,0,0,243.87,353.7Zm-8.19-15.33a1.8,1.8,0,0,1-.57-.1,1.67,1.67,0,0,1-.58-.29l-4.64-3a3.88,3.88,0,0,1-1.1-1,2.12,2.12,0,0,1-.4-1.18,1.87,1.87,0,0,1,.75-1.57,2.54,2.54,0,0,1,1.55-.57,2.4,2.4,0,0,1,1.2.32,5.08,5.08,0,0,1,1,.73l4,4a1.69,1.69,0,0,1,.6,1.15A1.36,1.36,0,0,1,237,338,1.84,1.84,0,0,1,235.68,338.37Z"></path><path class="cls-2" d="M267.78,340a9,9,0,0,1,5.49,1.47,7.73,7.73,0,0,1,2.72,3.95,18.57,18.57,0,0,1,.77,5.51v13.38a2.47,2.47,0,0,1-.72,1.82,2.39,2.39,0,0,1-1.77.73,2.35,2.35,0,0,1-1.8-.73,2.5,2.5,0,0,1-.7-1.82V351a9.8,9.8,0,0,0-.5-3.22,4.67,4.67,0,0,0-1.72-2.29,5.84,5.84,0,0,0-3.42-.88,7.24,7.24,0,0,0-3.6.88,6.67,6.67,0,0,0-2.42,2.29,6.07,6.07,0,0,0-.87,3.22v13.33a2.47,2.47,0,0,1-.72,1.82,2.41,2.41,0,0,1-1.78.73,2.34,2.34,0,0,1-1.79-.73,2.5,2.5,0,0,1-.7-1.82V343.12a2.54,2.54,0,0,1,.7-1.83,2.37,2.37,0,0,1,1.79-.72,2.44,2.44,0,0,1,1.78.72,2.51,2.51,0,0,1,.72,1.83v2.79l-.9.5a7.28,7.28,0,0,1,1.23-2.22,11.72,11.72,0,0,1,2.12-2.1,10.23,10.23,0,0,1,2.79-1.54A9.24,9.24,0,0,1,267.78,340Z"></path><path class="cls-2" d="M294.38,340a11,11,0,0,1,3.95.7,12.08,12.08,0,0,1,3.12,1.77,10.09,10.09,0,0,1,2.07,2.22,3.87,3.87,0,0,1,.75,2l-1.15,0v-4a2.53,2.53,0,0,1,.7-1.8,2.33,2.33,0,0,1,1.79-.75,2.37,2.37,0,0,1,1.8.73,2.5,2.5,0,0,1,.7,1.82v22a12.18,12.18,0,0,1-1.8,6.92,10.53,10.53,0,0,1-4.76,3.91,16.2,16.2,0,0,1-9.46.93,27.31,27.31,0,0,1-3.12-.78,6.4,6.4,0,0,1-2-.9,3.21,3.21,0,0,1-1.52-1.39,1.74,1.74,0,0,1,0-1.6,2.11,2.11,0,0,1,1.29-1.35,3.2,3.2,0,0,1,1.95.15c.33.1.85.28,1.55.55a18.77,18.77,0,0,0,2.35.72,9.9,9.9,0,0,0,2.44.33q4,0,6-1.85a6.51,6.51,0,0,0,2-5v-4.49l.6.35a4.74,4.74,0,0,1-1,2.12,9.42,9.42,0,0,1-2,2,11.37,11.37,0,0,1-2.84,1.47,9.67,9.67,0,0,1-3.35.58,11.62,11.62,0,0,1-6.31-1.77,12.76,12.76,0,0,1-4.47-4.85,15.93,15.93,0,0,1,0-14.12,12.87,12.87,0,0,1,4.42-4.85A11.28,11.28,0,0,1,294.38,340Zm.75,4.59a7.74,7.74,0,0,0-4.27,1.2A8.06,8.06,0,0,0,288,349a11.06,11.06,0,0,0,0,9.28,8.06,8.06,0,0,0,2.89,3.25,7.73,7.73,0,0,0,4.27,1.19,7.84,7.84,0,0,0,4.29-1.17,8,8,0,0,0,2.9-3.24,10.91,10.91,0,0,0,0-9.34,8,8,0,0,0-2.9-3.24A7.84,7.84,0,0,0,295.13,344.56Z"></path><g id="Layer_2-2" data-name="Layer 2"><g id="&#xD1;&#xEB;&#xEE;&#xE9;_1" data-name="&#xD1;&#xEB;&#xEE;&#xE9; 1"><path class="cls-3" d="M158,157h7v24.66a2.76,2.76,0,0,0,2,2.65,3.08,3.08,0,0,0,.74.11,2.76,2.76,0,0,0,2.34-1.31L186.25,157h3.1v1a16.18,16.18,0,0,0,16.16,16.15h58.22l16.16,26.11a2.75,2.75,0,0,0,2.34,1.3,3.07,3.07,0,0,0,.74-.1,2.75,2.75,0,0,0,2-2.66V174.15h7A16.17,16.17,0,0,0,308.11,158V103.35A16.17,16.17,0,0,0,292,87.2H260.62v-1a16.17,16.17,0,0,0-16.15-16.15H158A16.17,16.17,0,0,0,141.89,86.2v54.67A16.16,16.16,0,0,0,158,157ZM302.6,103.35V158A10.66,10.66,0,0,1,292,168.66h-9.73a2.75,2.75,0,0,0-2.75,2.75v17.73L267.61,170a2.75,2.75,0,0,0-2.35-1.32H205.53A10.65,10.65,0,0,1,194.89,158V103.33a10.51,10.51,0,0,1,1.15-4.8c.06-.1.11-.2.16-.3a10.61,10.61,0,0,1,9.33-5.54H292A10.66,10.66,0,0,1,302.6,103.35ZM147.4,86.2A10.66,10.66,0,0,1,158,75.56h86.44A10.66,10.66,0,0,1,255.12,86.2v1H205.53a16.15,16.15,0,0,0-13.43,7.18H159.9a2.76,2.76,0,1,0,0,5.51h29.85a16.81,16.81,0,0,0-.37,3.46v6.8H159.9a2.76,2.76,0,1,0-.2,5.51h29.68v10.26H159.9a2.76,2.76,0,1,0,0,5.51h29.48v20.06h-4.64a2.75,2.75,0,0,0-2.34,1.31L170.52,172V154.24a2.75,2.75,0,0,0-2.75-2.75H158a10.66,10.66,0,0,1-10.64-10.64Z"></path><path class="cls-3" d="M203.4,114.72a2.75,2.75,0,0,0,2.75,2.75h84.57a2.76,2.76,0,0,0,.2-5.51H206.16a2.76,2.76,0,0,0-2.76,2.75Z"></path><path class="cls-3" d="M290.72,127.73H206.16a2.76,2.76,0,1,0,0,5.51h84.56a2.76,2.76,0,0,0,0-5.51Z"></path><path class="cls-3" d="M290.72,143.49H206.16A2.76,2.76,0,0,0,206,149h84.76a2.76,2.76,0,0,0,.2-5.51Z"></path></g></g></g></g></svg>