<svg xmlns="http://www.w3.org/2000/svg" viewBox="0 0 450 450"><defs><style>.cls-1{fill:#ededed;}.cls-2{fill:#333;}.cls-3{fill:#00613c;}</style></defs><g id="Layer_2" data-name="Layer 2"><g id="Layer_1-2" data-name="Layer 1"><circle class="cls-1" cx="225" cy="225" r="225"></circle><path class="cls-2" d="M61.93,258.13a3.72,3.72,0,0,1-2.61-1,3.25,3.25,0,0,1-1-2.52,3.16,3.16,0,0,1,1-2.49,3.79,3.79,0,0,1,2.61-.93H88.57a3.72,3.72,0,0,1,2.61,1,3.25,3.25,0,0,1,1,2.52,3.16,3.16,0,0,1-1,2.49,3.79,3.79,0,0,1-2.61.93Zm13.26,35.1a3.8,3.8,0,0,1-2.76-1.05,3.49,3.49,0,0,1-1.08-2.61v-34.8h7.8v34.8A3.45,3.45,0,0,1,78,292.18,4,4,0,0,1,75.19,293.23Z"></path><path class="cls-2" d="M113.59,260.53q4.32,0,6.57,1.86a9.44,9.44,0,0,1,3.09,4.95,26.17,26.17,0,0,1,.84,6.87v15.36a3.6,3.6,0,0,1-1,2.61,3.69,3.69,0,0,1-5.16,0,3.6,3.6,0,0,1-1-2.61V274.21a12.34,12.34,0,0,0-.48-3.57,4.89,4.89,0,0,0-1.74-2.55,5.84,5.84,0,0,0-3.6-1,7.52,7.52,0,0,0-3.9,1,6.2,6.2,0,0,0-2.43,2.55,7.75,7.75,0,0,0-.81,3.57v15.36a3.6,3.6,0,0,1-1,2.61,3.69,3.69,0,0,1-5.16,0,3.6,3.6,0,0,1-1-2.61V252.49a3.6,3.6,0,0,1,1-2.61,3.69,3.69,0,0,1,5.16,0,3.6,3.6,0,0,1,1,2.61v14.88l-.9-.18a13.43,13.43,0,0,1,1.5-2.19,13,13,0,0,1,2.34-2.19,12.5,12.5,0,0,1,3.06-1.65A10.34,10.34,0,0,1,113.59,260.53Z"></path><path class="cls-2" d="M156.67,260.53a3.5,3.5,0,0,1,2.58,1,3.57,3.57,0,0,1,1,2.64v25.38a3.6,3.6,0,0,1-1,2.61,3.69,3.69,0,0,1-5.16,0,3.6,3.6,0,0,1-1-2.61v-2.94l1.32.54a3.38,3.38,0,0,1-.84,1.89,11.43,11.43,0,0,1-2.28,2.19,14,14,0,0,1-3.39,1.83,11.68,11.68,0,0,1-4.23.75,13.72,13.72,0,0,1-7.5-2.13,15,15,0,0,1-5.31-5.88,20.12,20.12,0,0,1,0-17.28,15.15,15.15,0,0,1,5.25-5.88,13.22,13.22,0,0,1,7.32-2.13,13.86,13.86,0,0,1,4.74.78,14.16,14.16,0,0,1,3.75,2,11.35,11.35,0,0,1,2.46,2.43,3.86,3.86,0,0,1,.87,2.07l-2.16.78v-4.38a3.6,3.6,0,0,1,1-2.61A3.44,3.44,0,0,1,156.67,260.53Zm-12.12,26.7a8.13,8.13,0,0,0,4.62-1.32,8.91,8.91,0,0,0,3.09-3.6,11.5,11.5,0,0,0,1.11-5.1,11.64,11.64,0,0,0-1.11-5.16,8.91,8.91,0,0,0-3.09-3.6,8.13,8.13,0,0,0-4.62-1.32,8,8,0,0,0-4.56,1.32,8.91,8.91,0,0,0-3.09,3.6,11.64,11.64,0,0,0-1.11,5.16,11.5,11.5,0,0,0,1.11,5.1,8.91,8.91,0,0,0,3.09,3.6A8,8,0,0,0,144.55,287.23Z"></path><path class="cls-2" d="M184,260.53q4.44,0,6.75,1.86a9.45,9.45,0,0,1,3.18,4.95,25.72,25.72,0,0,1,.87,6.87v15.36a3.6,3.6,0,0,1-1,2.61,3.69,3.69,0,0,1-5.16,0,3.6,3.6,0,0,1-1-2.61V274.21a12,12,0,0,0-.51-3.57,5,5,0,0,0-1.83-2.55,6.36,6.36,0,0,0-3.78-1,7.93,7.93,0,0,0-4,1,6.57,6.57,0,0,0-2.52,2.55,7.31,7.31,0,0,0-.87,3.57v15.36a3.6,3.6,0,0,1-1,2.61,3.69,3.69,0,0,1-5.16,0,3.56,3.56,0,0,1-1-2.61V264.79a3.56,3.56,0,0,1,1-2.61,3.69,3.69,0,0,1,5.16,0,3.6,3.6,0,0,1,1,2.61v2.58l-.9-.18a11.87,11.87,0,0,1,1.56-2.19,14.55,14.55,0,0,1,2.4-2.19,12,12,0,0,1,3.12-1.65A11,11,0,0,1,184,260.53Z"></path><path class="cls-2" d="M218.28,260.53q4.33,0,6.58,1.86a9.5,9.5,0,0,1,3.09,4.95,26.62,26.62,0,0,1,.83,6.87v15.36a3.59,3.59,0,0,1-1,2.61,3.46,3.46,0,0,1-2.58,1.05,3.41,3.41,0,0,1-2.58-1.05,3.56,3.56,0,0,1-1-2.61V274.21a12.34,12.34,0,0,0-.48-3.57,5,5,0,0,0-1.74-2.55,5.86,5.86,0,0,0-3.6-1,7.49,7.49,0,0,0-3.9,1,6.14,6.14,0,0,0-2.43,2.55,7.75,7.75,0,0,0-.81,3.57v15.36a3.64,3.64,0,0,1-1,2.61,3.69,3.69,0,0,1-5.16,0,3.56,3.56,0,0,1-1-2.61V252.49a3.56,3.56,0,0,1,1-2.61,3.69,3.69,0,0,1,5.16,0,3.64,3.64,0,0,1,1,2.61v14.88l-.9-.18a12.82,12.82,0,0,1,1.5-2.19,12.66,12.66,0,0,1,2.34-2.19,12.32,12.32,0,0,1,3.06-1.65A10.29,10.29,0,0,1,218.28,260.53Z"></path><path class="cls-2" d="M251.34,261.73h14.23a3.28,3.28,0,0,1,3.35,3.36,3.09,3.09,0,0,1-1,2.31,3.29,3.29,0,0,1-2.39.93H251.34A3.28,3.28,0,0,1,248,265a3,3,0,0,1,1-2.31A3.27,3.27,0,0,1,251.34,261.73Zm6.42-7.5a3.37,3.37,0,0,1,2.56,1.05,3.69,3.69,0,0,1,1,2.61v26.7a2.61,2.61,0,0,0,.33,1.38,1.9,1.9,0,0,0,.9.78,3.14,3.14,0,0,0,1.23.24,3.18,3.18,0,0,0,1.32-.27,3.33,3.33,0,0,1,1.38-.27,2,2,0,0,1,1.53.78,3.24,3.24,0,0,1-1.14,4.92,7.6,7.6,0,0,1-3.93,1.08,20.78,20.78,0,0,1-2.79-.21,7.66,7.66,0,0,1-2.88-1,6.24,6.24,0,0,1-2.25-2.49,10,10,0,0,1-.9-4.62v-27a3.6,3.6,0,0,1,3.66-3.66Z"></path><path class="cls-2" d="M304.87,277.21a16.87,16.87,0,0,1-2.19,8.67,15.72,15.72,0,0,1-5.88,5.85,17.26,17.26,0,0,1-16.5,0,15.72,15.72,0,0,1-5.88-5.85,18.26,18.26,0,0,1,0-17.34,16,16,0,0,1,5.88-5.88,17,17,0,0,1,16.5,0,16,16,0,0,1,5.88,5.88A16.87,16.87,0,0,1,304.87,277.21Zm-7.2,0a11,11,0,0,0-1.23-5.31,9.15,9.15,0,0,0-3.3-3.51,9,9,0,0,0-9.18,0,9.15,9.15,0,0,0-3.3,3.51,10.91,10.91,0,0,0-1.23,5.31,10.78,10.78,0,0,0,1.23,5.25A9.15,9.15,0,0,0,284,286a9,9,0,0,0,9.18,0,9.15,9.15,0,0,0,3.3-3.51A10.89,10.89,0,0,0,297.67,277.21Z"></path><path class="cls-2" d="M335.65,260.53a3.51,3.51,0,0,1,2.58,1,3.57,3.57,0,0,1,1,2.64v25.38a3.6,3.6,0,0,1-1,2.61,3.69,3.69,0,0,1-5.16,0,3.56,3.56,0,0,1-1-2.61v-2.94l1.32.54a3.45,3.45,0,0,1-.84,1.89,11.71,11.71,0,0,1-2.28,2.19,14.17,14.17,0,0,1-3.39,1.83,11.68,11.68,0,0,1-4.23.75,13.72,13.72,0,0,1-7.5-2.13,14.91,14.91,0,0,1-5.31-5.88,20.12,20.12,0,0,1,0-17.28,15.15,15.15,0,0,1,5.25-5.88,13.17,13.17,0,0,1,7.32-2.13,13.86,13.86,0,0,1,4.74.78,14.16,14.16,0,0,1,3.75,2,11.82,11.82,0,0,1,2.46,2.43,4,4,0,0,1,.87,2.07l-2.16.78v-4.38a3.56,3.56,0,0,1,1-2.61A3.43,3.43,0,0,1,335.65,260.53Zm-12.12,26.7a8.18,8.18,0,0,0,4.62-1.32,9,9,0,0,0,3.09-3.6,11.5,11.5,0,0,0,1.11-5.1,11.64,11.64,0,0,0-1.11-5.16,9,9,0,0,0-3.09-3.6,8.18,8.18,0,0,0-4.62-1.32,8,8,0,0,0-4.56,1.32,8.91,8.91,0,0,0-3.09,3.6,11.5,11.5,0,0,0-1.11,5.16,11.36,11.36,0,0,0,1.11,5.1,8.91,8.91,0,0,0,3.09,3.6A8,8,0,0,0,323.53,287.23Zm.66-28.14a2.36,2.36,0,0,1-1.23-.51,1.52,1.52,0,0,1-.69-1.47,2.23,2.23,0,0,1,.36-1.14l3.48-6.12a6,6,0,0,1,1.38-1.68,2.85,2.85,0,0,1,1.92-.72,3.15,3.15,0,0,1,2.46.87,2.94,2.94,0,0,1,.72,2.13,4.9,4.9,0,0,1-.33,1.26,5.53,5.53,0,0,1-.81,1.32l-4.56,5a2.66,2.66,0,0,1-1.32.84A5.75,5.75,0,0,1,324.19,259.09Z"></path><path class="cls-2" d="M363,260.53q4.44,0,6.75,1.86a9.45,9.45,0,0,1,3.18,4.95,25.32,25.32,0,0,1,.87,6.87v15.36a3.6,3.6,0,0,1-1,2.61,3.69,3.69,0,0,1-5.16,0,3.6,3.6,0,0,1-1-2.61V274.21a11.66,11.66,0,0,0-.51-3.57,4.93,4.93,0,0,0-1.83-2.55,6.36,6.36,0,0,0-3.78-1,7.93,7.93,0,0,0-4.05,1,6.57,6.57,0,0,0-2.52,2.55,7.31,7.31,0,0,0-.87,3.57v15.36a3.6,3.6,0,0,1-1,2.61,3.69,3.69,0,0,1-5.16,0,3.6,3.6,0,0,1-1-2.61V264.79a3.6,3.6,0,0,1,1-2.61,3.69,3.69,0,0,1,5.16,0,3.6,3.6,0,0,1,1,2.61v2.58l-.9-.18A11.87,11.87,0,0,1,353.7,265a15,15,0,0,1,2.4-2.19,12.2,12.2,0,0,1,3.12-1.65A11,11,0,0,1,363,260.53Z"></path><path class="cls-2" d="M98.36,340.87h11.73a2.31,2.31,0,0,1,1.67.67,2.28,2.28,0,0,1,.68,1.68,2.12,2.12,0,0,1-.68,1.59,2.29,2.29,0,0,1-1.67.65H98.36a2.25,2.25,0,0,1-1.67-.67,2.21,2.21,0,0,1-.68-1.62,2.19,2.19,0,0,1,.68-1.65A2.32,2.32,0,0,1,98.36,340.87Zm5.24-6.49a2.38,2.38,0,0,1,1.8.73,2.54,2.54,0,0,1,.7,1.82v23.16a3,3,0,0,0,.3,1.45,1.51,1.51,0,0,0,.82.74,2.86,2.86,0,0,0,1.07.2,2.2,2.2,0,0,0,1-.2,2.41,2.41,0,0,1,1-.19,1.49,1.49,0,0,1,1.1.54,2.17,2.17,0,0,1,.5,1.5,2.23,2.23,0,0,1-1.3,1.95,5.52,5.52,0,0,1-2.8.75,15.6,15.6,0,0,1-2-.15,6.2,6.2,0,0,1-2.23-.75A4.61,4.61,0,0,1,101.8,364a8.15,8.15,0,0,1-.7-3.72V336.93a2.44,2.44,0,0,1,.73-1.82A2.38,2.38,0,0,1,103.6,334.38Z"></path><path class="cls-2" d="M120.47,366.83a2.38,2.38,0,0,1-1.8-.73,2.53,2.53,0,0,1-.69-1.82V343.12a2.57,2.57,0,0,1,.69-1.83,2.57,2.57,0,0,1,3.57,0,2.48,2.48,0,0,1,.73,1.83v5.59l-.5-2.15a8.55,8.55,0,0,1,1.22-2.59,9.58,9.58,0,0,1,2-2.1,8.89,8.89,0,0,1,2.57-1.4,9,9,0,0,1,3-.5,3.72,3.72,0,0,1,2.25.7,2.11,2.11,0,0,1,1,1.75,2.54,2.54,0,0,1-.7,2,2.25,2.25,0,0,1-1.55.62,3.36,3.36,0,0,1-1.45-.32,3.78,3.78,0,0,0-1.64-.33,4.87,4.87,0,0,0-2.15.55,6.34,6.34,0,0,0-2,1.63,8.34,8.34,0,0,0-1.42,2.52,9.41,9.41,0,0,0-.52,3.24v12a2.44,2.44,0,0,1-.73,1.82A2.38,2.38,0,0,1,120.47,366.83Z"></path><path class="cls-2" d="M158.41,340.57a2.41,2.41,0,0,1,1.77.72,2.51,2.51,0,0,1,.72,1.83v13.12c0,3.47-1,6.17-2.89,8.12s-4.66,2.92-8.19,2.92-6.2-1-8.11-2.92-2.87-4.65-2.87-8.12V343.12a2.54,2.54,0,0,1,.7-1.83,2.57,2.57,0,0,1,3.57,0,2.51,2.51,0,0,1,.72,1.83v13.12a6.78,6.78,0,0,0,1.53,4.85,5.88,5.88,0,0,0,4.46,1.59,6.08,6.08,0,0,0,4.55-1.59,6.74,6.74,0,0,0,1.54-4.85V343.12a2.58,2.58,0,0,1,.7-1.83A2.41,2.41,0,0,1,158.41,340.57Zm-8.14,33.85a3.32,3.32,0,0,1-2.09-.53,2.13,2.13,0,0,1-.65-1.77v-.8a2,2,0,0,1,.7-1.75,3.49,3.49,0,0,1,2-.5,3.71,3.71,0,0,1,2.2.5,2.1,2.1,0,0,1,.65,1.75v.8a2.12,2.12,0,0,1-.68,1.8A3.71,3.71,0,0,1,150.27,374.42Zm7.64-29.61v-4.19a5.54,5.54,0,0,0,3.24-.8,2.86,2.86,0,0,0,1.15-2.54,2.69,2.69,0,0,1,.55-1.6,1.86,1.86,0,0,1,1.6-.75,1.66,1.66,0,0,1,1.62.8,3.32,3.32,0,0,1,.42,1.55,7.93,7.93,0,0,1-.92,3.82,6.66,6.66,0,0,1-2.79,2.72A10.41,10.41,0,0,1,157.91,344.81Z"></path><path class="cls-2" d="M179.27,340a17.6,17.6,0,0,1,4.77.58,8.46,8.46,0,0,1,3.27,1.59,3.07,3.07,0,0,1,1.2,2.37,2.64,2.64,0,0,1-.53,1.58,1.71,1.71,0,0,1-1.47.72,2.54,2.54,0,0,1-1.22-.25,4.41,4.41,0,0,1-.88-.6,6.72,6.72,0,0,0-1-.7,6,6,0,0,0-1.63-.5,10.8,10.8,0,0,0-1.92-.2,8.43,8.43,0,0,0-4.56,1.2,8.25,8.25,0,0,0-3,3.25,10.6,10.6,0,0,0,0,9.28,8.42,8.42,0,0,0,2.95,3.25,7.87,7.87,0,0,0,4.36,1.19,11.21,11.21,0,0,0,2.47-.22,6.85,6.85,0,0,0,1.63-.57A6.32,6.32,0,0,0,185,361a2.44,2.44,0,0,1,3.12.2,2.46,2.46,0,0,1,.58,1.67,2.81,2.81,0,0,1-1.32,2.13,10.78,10.78,0,0,1-3.52,1.67,17.19,17.19,0,0,1-4.85.65,12.46,12.46,0,0,1-6.76-1.8,12.2,12.2,0,0,1-4.44-4.89,15.23,15.23,0,0,1-1.58-7,14.55,14.55,0,0,1,1.65-7,12.53,12.53,0,0,1,4.6-4.87A12.72,12.72,0,0,1,179.27,340Z"></path><path class="cls-2" d="M207.08,340.87h11.73a2.31,2.31,0,0,1,1.67.67,2.28,2.28,0,0,1,.68,1.68,2.12,2.12,0,0,1-.68,1.59,2.29,2.29,0,0,1-1.67.65H207.08a2.25,2.25,0,0,1-1.67-.67,2.21,2.21,0,0,1-.68-1.62,2.19,2.19,0,0,1,.68-1.65A2.32,2.32,0,0,1,207.08,340.87Zm5.24-6.49a2.38,2.38,0,0,1,1.8.73,2.54,2.54,0,0,1,.7,1.82v23.16a2.92,2.92,0,0,0,.3,1.45,1.51,1.51,0,0,0,.82.74,2.86,2.86,0,0,0,1.07.2,2.2,2.2,0,0,0,1-.2,2.41,2.41,0,0,1,1-.19,1.49,1.49,0,0,1,1.1.54,2.17,2.17,0,0,1,.5,1.5,2.23,2.23,0,0,1-1.3,1.95,5.52,5.52,0,0,1-2.8.75,15.6,15.6,0,0,1-2-.15,6.2,6.2,0,0,1-2.23-.75,4.61,4.61,0,0,1-1.77-1.92,8.15,8.15,0,0,1-.7-3.72V336.93a2.44,2.44,0,0,1,.73-1.82A2.38,2.38,0,0,1,212.32,334.38Z"></path><path class="cls-2" d="M246.26,340.57a2.41,2.41,0,0,1,1.77.72,2.48,2.48,0,0,1,.73,1.83v13.12c0,3.47-1,6.17-2.9,8.12s-4.66,2.92-8.18,2.92-6.2-1-8.11-2.92-2.88-4.65-2.88-8.12V343.12a2.58,2.58,0,0,1,.7-1.83,2.57,2.57,0,0,1,3.57,0,2.52,2.52,0,0,1,.73,1.83v13.12a6.78,6.78,0,0,0,1.52,4.85,5.89,5.89,0,0,0,4.47,1.59,6.06,6.06,0,0,0,4.54-1.59,6.74,6.74,0,0,0,1.55-4.85V343.12a2.54,2.54,0,0,1,.7-1.83A2.37,2.37,0,0,1,246.26,340.57Z"></path><path class="cls-2" d="M275.21,340.37a2.37,2.37,0,0,1,1.8.73,2.5,2.5,0,0,1,.7,1.82v21.46a13.62,13.62,0,0,1-1.67,7.14,10,10,0,0,1-4.5,4,15.27,15.27,0,0,1-6.36,1.27,20.65,20.65,0,0,1-3.59-.32,10.57,10.57,0,0,1-2.95-.93,3.78,3.78,0,0,1-1.7-1.34,1.92,1.92,0,0,1-.15-1.75,2.48,2.48,0,0,1,1.2-1.62,2.06,2.06,0,0,1,1.75-.08l2.25.9a8.57,8.57,0,0,0,3.19.55,9.7,9.7,0,0,0,4.14-.8,5.37,5.37,0,0,0,2.57-2.5,9.47,9.47,0,0,0,.88-4.39v-3.44l.8,1.19a8.42,8.42,0,0,1-2.1,2.75,9.43,9.43,0,0,1-3.07,1.7,12.17,12.17,0,0,1-3.92.6,8.76,8.76,0,0,1-4.72-1.23,8,8,0,0,1-3-3.39,11.41,11.41,0,0,1-1-5V342.92a2.5,2.5,0,0,1,.7-1.82,2.34,2.34,0,0,1,1.79-.73,2.38,2.38,0,0,1,1.77.73,2.44,2.44,0,0,1,.73,1.82V356.4c0,2.19.48,3.8,1.45,4.81a5.61,5.61,0,0,0,4.29,1.52,6.54,6.54,0,0,0,3.29-.79,5.82,5.82,0,0,0,2.2-2.23,6.65,6.65,0,0,0,.8-3.31V342.92a2.47,2.47,0,0,1,.72-1.82A2.39,2.39,0,0,1,275.21,340.37Z"></path><path class="cls-2" d="M296.43,367.33a14.45,14.45,0,0,1-7.16-1.72,12.06,12.06,0,0,1-4.75-4.75,14.08,14.08,0,0,1-1.67-6.91,15,15,0,0,1,1.77-7.51,12.63,12.63,0,0,1,4.65-4.8,11.88,11.88,0,0,1,6.06-1.67,11.38,11.38,0,0,1,4.62,1,12.3,12.3,0,0,1,3.92,2.69,13,13,0,0,1,2.69,4,13.2,13.2,0,0,1,1.05,5.07,2.22,2.22,0,0,1-.8,1.65,2.59,2.59,0,0,1-1.74.65H285.7l-1.2-4.25h18.77l-.95.9v-1.25a5.63,5.63,0,0,0-1.2-3.07,7.1,7.1,0,0,0-2.57-2,7.47,7.47,0,0,0-3.22-.73,8.81,8.81,0,0,0-2.89.48,6.14,6.14,0,0,0-2.45,1.52,7.63,7.63,0,0,0-1.7,2.77,12.26,12.26,0,0,0-.65,4.27,9.67,9.67,0,0,0,1.15,4.79,8.22,8.22,0,0,0,3.1,3.17,8.48,8.48,0,0,0,4.34,1.12,10.11,10.11,0,0,0,3-.37,7.6,7.6,0,0,0,2-.92c.53-.37,1-.72,1.4-1.05a3.06,3.06,0,0,1,1.5-.45,2,2,0,0,1,1.49.62,2.07,2.07,0,0,1,.6,1.48,2.56,2.56,0,0,1-1.09,2,12.1,12.1,0,0,1-3.72,2.3A12.79,12.79,0,0,1,296.43,367.33Zm-.65-34.3-4,3.35q-.56.45-.93.72a1.9,1.9,0,0,1-1.12.28,1.33,1.33,0,0,1-.92-.33,1,1,0,0,1-.38-.77,2.09,2.09,0,0,1,.1-.6,2.36,2.36,0,0,1,.45-.7l2.85-3.39a3,3,0,0,1,2.54-1.25h1.5a2.84,2.84,0,0,1,1.35.27,2.88,2.88,0,0,1,.95,1l2.69,3.39a3.05,3.05,0,0,1,.4.67,1.81,1.81,0,0,1,.1.63,1,1,0,0,1-.35.77,1.25,1.25,0,0,1-.9.33,1.87,1.87,0,0,1-1.14-.28c-.24-.18-.55-.44-1-.77l-4.3-3.65Zm5.84.3a1.62,1.62,0,0,1-.87-.37,1.09,1.09,0,0,1-.48-1,1.54,1.54,0,0,1,.3-.85l2.95-5a3.85,3.85,0,0,1,1-1.18,2.15,2.15,0,0,1,1.42-.52,2.33,2.33,0,0,1,1.75.62,2,2,0,0,1,.55,1.57,3,3,0,0,1-.25.9,4.36,4.36,0,0,1-.55.9l-3.79,4.14a2.57,2.57,0,0,1-1,.63A3.4,3.4,0,0,1,301.62,333.33Z"></path><path class="cls-2" d="M326.53,340a9,9,0,0,1,5.49,1.47,7.73,7.73,0,0,1,2.72,3.95,18.25,18.25,0,0,1,.77,5.51v13.38a2.47,2.47,0,0,1-.72,1.82,2.55,2.55,0,0,1-3.57,0,2.54,2.54,0,0,1-.7-1.82V351a9.55,9.55,0,0,0-.5-3.22,4.61,4.61,0,0,0-1.72-2.29,5.8,5.8,0,0,0-3.42-.88,7.21,7.21,0,0,0-3.59.88,6.59,6.59,0,0,0-2.42,2.29A6,6,0,0,0,318,351v13.33a2.47,2.47,0,0,1-.72,1.82,2.55,2.55,0,0,1-3.57,0,2.5,2.5,0,0,1-.7-1.82V343.12a2.54,2.54,0,0,1,.7-1.83,2.57,2.57,0,0,1,3.57,0,2.51,2.51,0,0,1,.72,1.83v2.79l-.89.5a7.23,7.23,0,0,1,1.22-2.22,12.06,12.06,0,0,1,2.12-2.1,10.14,10.14,0,0,1,2.8-1.54A9.18,9.18,0,0,1,326.53,340Z"></path><g id="Layer_2-2" data-name="Layer 2"><g id="&#xD1;&#xEB;&#xEE;&#xE9;_1" data-name="&#xD1;&#xEB;&#xEE;&#xE9; 1"><path class="cls-3" d="M160.48,197.25H267.81a14.53,14.53,0,0,0,14.53-14.52v-21l21.18-4.89a14.55,14.55,0,0,0,10.87-17.43L300.21,78a14.55,14.55,0,0,0-17.43-10.88L178.21,91.34A14.58,14.58,0,0,0,167,105.21h-6.48A14.54,14.54,0,0,0,146,119.75v63A14.53,14.53,0,0,0,160.48,197.25Zm107.33-5.59H160.48a8.94,8.94,0,0,1-8.93-8.93V138.36H276.74v44.37a9,9,0,0,1-8.93,8.93Zm-1-86.43-2.78-12,16.39-3.8,3.79,16.4-8.26,1.91a14.45,14.45,0,0,0-8.13-2.49Zm-87.33-8.44L284,72.61a8.92,8.92,0,0,1,10.71,6.69l14.19,61.35a9,9,0,0,1-6.69,10.71L282.34,156V119.75a14.55,14.55,0,0,0-2-7.31l7.83-1.81a2.8,2.8,0,0,0,2.09-3.36l-5-21.84a2.8,2.8,0,0,0-3.36-2.1L260,88.4a2.81,2.81,0,0,0-2.1,3.35h0l3.12,13.49H172.57A9,9,0,0,1,179.47,96.79Zm-19,14H267.81a8.85,8.85,0,0,1,5.65,2l.13.11a8.9,8.9,0,0,1,3.15,6.79v13H151.55v-13A8.93,8.93,0,0,1,160.48,110.84Z"></path><path class="cls-3" d="M196.94,172.28H164.31a2.8,2.8,0,0,0,0,5.6h32.63a2.8,2.8,0,0,0,0-5.6Z"></path></g></g></g></g></svg>