<svg xmlns="http://www.w3.org/2000/svg" viewBox="0 0 450 450"><defs><style>.cls-1{fill:#ededed;}.cls-2{fill:#333;}.cls-3{fill:#00613c;}</style></defs><g id="Layer_2" data-name="Layer 2"><g id="Layer_1-2" data-name="Layer 1"><circle class="cls-1" cx="225" cy="225" r="225"></circle><path class="cls-2" d="M51.22,258.13a3.72,3.72,0,0,1-2.61-1,3.25,3.25,0,0,1-1-2.52,3.16,3.16,0,0,1,1-2.49,3.79,3.79,0,0,1,2.61-.93H77.86a3.72,3.72,0,0,1,2.61,1,3.25,3.25,0,0,1,1,2.52,3.16,3.16,0,0,1-1,2.49,3.79,3.79,0,0,1-2.61.93Zm13.26,35.1a3.8,3.8,0,0,1-2.76-1.05,3.49,3.49,0,0,1-1.08-2.61v-34.8h7.8v34.8a3.45,3.45,0,0,1-1.11,2.61A4,4,0,0,1,64.48,293.23Z"></path><path class="cls-2" d="M102.88,260.53q4.32,0,6.57,1.86a9.44,9.44,0,0,1,3.09,4.95,26.17,26.17,0,0,1,.84,6.87v15.36a3.6,3.6,0,0,1-1,2.61,3.69,3.69,0,0,1-5.16,0,3.6,3.6,0,0,1-1-2.61V274.21a12.34,12.34,0,0,0-.48-3.57,4.89,4.89,0,0,0-1.74-2.55,5.84,5.84,0,0,0-3.6-1,7.52,7.52,0,0,0-3.9,1A6.2,6.2,0,0,0,94,270.64a7.75,7.75,0,0,0-.81,3.57v15.36a3.6,3.6,0,0,1-1,2.61,3.69,3.69,0,0,1-5.16,0,3.6,3.6,0,0,1-1-2.61V252.49a3.6,3.6,0,0,1,1-2.61,3.69,3.69,0,0,1,5.16,0,3.6,3.6,0,0,1,1,2.61v14.88l-.9-.18a13.43,13.43,0,0,1,1.5-2.19,13,13,0,0,1,2.34-2.19,12.5,12.5,0,0,1,3.06-1.65A10.34,10.34,0,0,1,102.88,260.53Z"></path><path class="cls-2" d="M143.8,261.13a3.44,3.44,0,0,1,2.58,1.05,3.6,3.6,0,0,1,1,2.61V280q0,6.36-3.54,10.08t-10.2,3.72q-6.66,0-10.17-3.72T120,280V264.79a3.6,3.6,0,0,1,1-2.61,3.69,3.69,0,0,1,5.16,0,3.6,3.6,0,0,1,1,2.61V280q0,3.66,1.62,5.43a6.27,6.27,0,0,0,4.86,1.77,6.35,6.35,0,0,0,4.92-1.77q1.62-1.77,1.62-5.43V264.79a3.6,3.6,0,0,1,1-2.61A3.44,3.44,0,0,1,143.8,261.13Zm-.72,6.06v-6a6.74,6.74,0,0,0,3.72-.9,3.12,3.12,0,0,0,1.38-2.82,3.55,3.55,0,0,1,.78-2.13,2.66,2.66,0,0,1,2.28-1.05,2.42,2.42,0,0,1,2.31,1.11,4.23,4.23,0,0,1,.63,2.07,10.35,10.35,0,0,1-1.14,4.8,8.53,8.53,0,0,1-3.57,3.57A13.12,13.12,0,0,1,143.08,267.19Z"></path><path class="cls-2" d="M184.84,277.21a16.87,16.87,0,0,1-2.19,8.67,15.72,15.72,0,0,1-5.88,5.85,17.26,17.26,0,0,1-16.5,0,15.72,15.72,0,0,1-5.88-5.85,18.26,18.26,0,0,1,0-17.34,16,16,0,0,1,5.88-5.88,17,17,0,0,1,16.5,0,16,16,0,0,1,5.88,5.88A16.87,16.87,0,0,1,184.84,277.21Zm-7.2,0a10.91,10.91,0,0,0-1.23-5.31,9.15,9.15,0,0,0-3.3-3.51,9,9,0,0,0-9.18,0,9.15,9.15,0,0,0-3.3,3.51,10.91,10.91,0,0,0-1.23,5.31,10.78,10.78,0,0,0,1.23,5.25,9.15,9.15,0,0,0,3.3,3.51,9,9,0,0,0,9.18,0,9.15,9.15,0,0,0,3.3-3.51A10.78,10.78,0,0,0,177.64,277.21Zm-3.84-9.9v-6a6.74,6.74,0,0,0,3.72-.9,3.12,3.12,0,0,0,1.38-2.82,3.55,3.55,0,0,1,.78-2.13,2.66,2.66,0,0,1,2.28-1.05,2.42,2.42,0,0,1,2.31,1.11,4.23,4.23,0,0,1,.63,2.07,10.35,10.35,0,0,1-1.14,4.8,8.53,8.53,0,0,1-3.57,3.57A13.12,13.12,0,0,1,173.8,267.31Z"></path><path class="cls-2" d="M206.8,260.53q4.44,0,6.75,1.86a9.45,9.45,0,0,1,3.18,4.95,25.32,25.32,0,0,1,.87,6.87v15.36a3.6,3.6,0,0,1-1,2.61,3.69,3.69,0,0,1-5.16,0,3.6,3.6,0,0,1-1-2.61V274.21a11.66,11.66,0,0,0-.51-3.57,4.93,4.93,0,0,0-1.83-2.55,6.36,6.36,0,0,0-3.78-1,7.93,7.93,0,0,0-4.05,1,6.5,6.5,0,0,0-2.52,2.55,7.31,7.31,0,0,0-.87,3.57v15.36a3.6,3.6,0,0,1-1,2.61,3.69,3.69,0,0,1-5.16,0,3.6,3.6,0,0,1-1-2.61V264.79a3.6,3.6,0,0,1,1-2.61,3.69,3.69,0,0,1,5.16,0,3.6,3.6,0,0,1,1,2.61v2.58l-.9-.18A11.87,11.87,0,0,1,197.5,265a15,15,0,0,1,2.4-2.19,12.2,12.2,0,0,1,3.12-1.65A11,11,0,0,1,206.8,260.53Z"></path><path class="cls-2" d="M237.22,260.53a13.18,13.18,0,0,1,4.62.78,13.39,13.39,0,0,1,3.63,2,11.9,11.9,0,0,1,2.4,2.43,3.86,3.86,0,0,1,.87,2.07l-1.56.78v-4.38a3.6,3.6,0,0,1,1-2.61,3.44,3.44,0,0,1,2.58-1.05,3.51,3.51,0,0,1,2.58,1,3.57,3.57,0,0,1,1,2.64v26.7a14.11,14.11,0,0,1-2.25,8.37,12.72,12.72,0,0,1-5.91,4.56,21.68,21.68,0,0,1-7.86,1.41,21.11,21.11,0,0,1-3.12-.3q-1.92-.3-3.66-.72a20.55,20.55,0,0,1-2.64-.78,5.12,5.12,0,0,1-2.49-1.95,2.94,2.94,0,0,1-.27-2.49,3.76,3.76,0,0,1,1.74-2.37,3,3,0,0,1,2.52-.15c.39.12,1.06.36,2,.72a30,30,0,0,0,3,1,11.24,11.24,0,0,0,2.91.45q4.5,0,6.66-1.8a6.13,6.13,0,0,0,2.16-5v-5.22l.72.54a3.44,3.44,0,0,1-.81,1.89,11,11,0,0,1-2.22,2.19,13.55,13.55,0,0,1-3.33,1.83,11.15,11.15,0,0,1-4.08.75,14.23,14.23,0,0,1-7.68-2.13,15,15,0,0,1-5.4-5.88,19.84,19.84,0,0,1,0-17.28,15.2,15.2,0,0,1,5.34-5.88A13.72,13.72,0,0,1,237.22,260.53Zm1.14,6.6a8.53,8.53,0,0,0-4.74,1.32,9,9,0,0,0-3.18,3.6,11.38,11.38,0,0,0-1.14,5.16,11.24,11.24,0,0,0,1.14,5.1,9,9,0,0,0,3.18,3.6,8.53,8.53,0,0,0,4.74,1.32,8.64,8.64,0,0,0,4.8-1.32,9,9,0,0,0,3.18-3.6,11.24,11.24,0,0,0,1.14-5.1,11.38,11.38,0,0,0-1.14-5.16,9,9,0,0,0-3.18-3.6A8.64,8.64,0,0,0,238.36,267.13Z"></path><path class="cls-2" d="M293.44,260.53q4.32,0,6.57,1.86a9.44,9.44,0,0,1,3.09,4.95,26.17,26.17,0,0,1,.84,6.87v15.36a3.6,3.6,0,0,1-1,2.61,3.69,3.69,0,0,1-5.16,0,3.6,3.6,0,0,1-1-2.61V274.21a12.34,12.34,0,0,0-.48-3.57,4.89,4.89,0,0,0-1.74-2.55,5.84,5.84,0,0,0-3.6-1,7.52,7.52,0,0,0-3.9,1,6.2,6.2,0,0,0-2.43,2.55,7.75,7.75,0,0,0-.81,3.57v15.36a3.6,3.6,0,0,1-1,2.61,3.69,3.69,0,0,1-5.16,0,3.6,3.6,0,0,1-1-2.61V252.49a3.6,3.6,0,0,1,1-2.61,3.69,3.69,0,0,1,5.16,0,3.6,3.6,0,0,1,1,2.61v14.88l-.9-.18a13.43,13.43,0,0,1,1.5-2.19,12.66,12.66,0,0,1,2.34-2.19,12.5,12.5,0,0,1,3.06-1.65A10.34,10.34,0,0,1,293.44,260.53Z"></path><path class="cls-2" d="M313.66,257.23a4.75,4.75,0,0,1-2.88-.66,2.79,2.79,0,0,1-.84-2.34v-1.14a2.67,2.67,0,0,1,.93-2.37,5.14,5.14,0,0,1,2.85-.63,4.92,4.92,0,0,1,2.94.66,2.82,2.82,0,0,1,.84,2.34v1.14a2.71,2.71,0,0,1-.9,2.37A5.28,5.28,0,0,1,313.66,257.23Zm3.66,32.34a3.6,3.6,0,0,1-1,2.61,3.69,3.69,0,0,1-5.16,0,3.6,3.6,0,0,1-1-2.61V264.79a3.6,3.6,0,0,1,1-2.61,3.69,3.69,0,0,1,5.16,0,3.6,3.6,0,0,1,1,2.61Z"></path><path class="cls-2" d="M338.32,293.83a17.6,17.6,0,0,1-8.85-2.13,14.64,14.64,0,0,1-5.76-5.79,16.91,16.91,0,0,1-2-8.28,18.09,18.09,0,0,1,2.19-9.21,15.42,15.42,0,0,1,5.73-5.85,14.79,14.79,0,0,1,7.5-2,13.69,13.69,0,0,1,5.79,1.26,16,16,0,0,1,4.83,3.45,16.77,16.77,0,0,1,3.33,5.07,15.59,15.59,0,0,1,1.23,6.12,3.08,3.08,0,0,1-1.14,2.34,3.82,3.82,0,0,1-2.52.9H325.72l-1.8-6h22l-1.32,1.2v-1.62a5.54,5.54,0,0,0-1.23-3.12,8,8,0,0,0-2.76-2.19,7.86,7.86,0,0,0-3.51-.81,11.32,11.32,0,0,0-3.36.48,6.38,6.38,0,0,0-2.7,1.62,7.74,7.74,0,0,0-1.8,3.06,15.17,15.17,0,0,0-.66,4.86,10.49,10.49,0,0,0,1.35,5.49,9.23,9.23,0,0,0,8,4.59,14,14,0,0,0,3.54-.36,8,8,0,0,0,2.13-.87q.81-.51,1.47-.87a4.58,4.58,0,0,1,2-.54,3,3,0,0,1,3.06,3,3.77,3.77,0,0,1-1.68,2.94,14,14,0,0,1-4.38,2.31A17.49,17.49,0,0,1,338.32,293.83ZM338.2,252l-4.62,3.84c-.52.44-1,.79-1.29,1a2.74,2.74,0,0,1-1.65.39,1.88,1.88,0,0,1-1.29-.45,1.36,1.36,0,0,1-.51-1,3,3,0,0,1,.12-.87,3.31,3.31,0,0,1,.6-1l2.94-3.72a4.43,4.43,0,0,1,3.66-1.74h2.16a4.13,4.13,0,0,1,1.89.36,3.87,3.87,0,0,1,1.35,1.38l2.64,3.72a3.54,3.54,0,0,1,.6,1,3,3,0,0,1,.12.87,1.4,1.4,0,0,1-.48,1,1.85,1.85,0,0,1-1.32.45,2.6,2.6,0,0,1-1.62-.39l-1.32-1-5-4.44Zm-1.32,50.82a4.64,4.64,0,0,1-2.82-.66,2.82,2.82,0,0,1-.84-2.34v-1.14a2.67,2.67,0,0,1,.93-2.37,4.88,4.88,0,0,1,2.73-.63,5.36,5.36,0,0,1,3.06.63,2.81,2.81,0,0,1,.84,2.37v1.14a2.71,2.71,0,0,1-.9,2.37A5.4,5.4,0,0,1,336.88,302.83Z"></path><path class="cls-2" d="M380.91,261.13a3.44,3.44,0,0,1,2.58,1.05,3.6,3.6,0,0,1,1,2.61V280q0,6.36-3.54,10.08t-10.2,3.72q-6.66,0-10.17-3.72T357.09,280V264.79a3.6,3.6,0,0,1,1-2.61,3.69,3.69,0,0,1,5.16,0,3.6,3.6,0,0,1,1,2.61V280q0,3.66,1.62,5.43a6.27,6.27,0,0,0,4.86,1.77,6.35,6.35,0,0,0,4.92-1.77q1.62-1.77,1.62-5.43V264.79a3.6,3.6,0,0,1,1-2.61A3.44,3.44,0,0,1,380.91,261.13Z"></path><path class="cls-2" d="M122.52,340.87h11.73a2.31,2.31,0,0,1,1.67.67,2.28,2.28,0,0,1,.67,1.68,2.11,2.11,0,0,1-.67,1.59,2.29,2.29,0,0,1-1.67.65H122.52a2.24,2.24,0,0,1-1.67-.67,2.21,2.21,0,0,1-.68-1.62,2.19,2.19,0,0,1,.68-1.65A2.3,2.3,0,0,1,122.52,340.87Zm5.24-6.49a2.38,2.38,0,0,1,1.8.73,2.53,2.53,0,0,1,.69,1.82v23.16a3.16,3.16,0,0,0,.3,1.45,1.57,1.57,0,0,0,.83.74,2.82,2.82,0,0,0,1.07.2,2.13,2.13,0,0,0,1-.2,2.49,2.49,0,0,1,1-.19,1.49,1.49,0,0,1,1.1.54,2.17,2.17,0,0,1,.5,1.5,2.23,2.23,0,0,1-1.3,1.95,5.52,5.52,0,0,1-2.8.75,15.6,15.6,0,0,1-2-.15,6.2,6.2,0,0,1-2.23-.75A4.61,4.61,0,0,1,126,364a8.15,8.15,0,0,1-.7-3.72V336.93a2.44,2.44,0,0,1,.73-1.82A2.38,2.38,0,0,1,127.76,334.38Z"></path><path class="cls-2" d="M144.28,337.08a3.37,3.37,0,0,1-2.1-.53,2.16,2.16,0,0,1-.64-1.77V334a2,2,0,0,1,.7-1.75,3.6,3.6,0,0,1,2.09-.49,3.46,3.46,0,0,1,2.15.52,2.09,2.09,0,0,1,.65,1.72v.8a2.1,2.1,0,0,1-.68,1.8A3.71,3.71,0,0,1,144.28,337.08Zm2.55,27.2a2.54,2.54,0,0,1-.7,1.82,2.55,2.55,0,0,1-3.57,0,2.47,2.47,0,0,1-.72-1.82V342.92a2.47,2.47,0,0,1,.72-1.82,2.55,2.55,0,0,1,3.57,0,2.54,2.54,0,0,1,.7,1.82Z"></path><path class="cls-2" d="M167.09,340a8.92,8.92,0,0,1,5.49,1.47,7.67,7.67,0,0,1,2.72,3.95,18.25,18.25,0,0,1,.78,5.51v13.38a2.44,2.44,0,0,1-.73,1.82,2.38,2.38,0,0,1-1.77.73,2.34,2.34,0,0,1-1.79-.73,2.5,2.5,0,0,1-.7-1.82V351a9.8,9.8,0,0,0-.5-3.22,4.73,4.73,0,0,0-1.72-2.29,5.84,5.84,0,0,0-3.42-.88,7.22,7.22,0,0,0-3.6.88,6.59,6.59,0,0,0-2.42,2.29,6.07,6.07,0,0,0-.87,3.22v13.33a2.44,2.44,0,0,1-.73,1.82,2.55,2.55,0,0,1-3.57,0,2.53,2.53,0,0,1-.69-1.82V343.12a2.57,2.57,0,0,1,.69-1.83,2.57,2.57,0,0,1,3.57,0,2.48,2.48,0,0,1,.73,1.83v2.79l-.9.5a7.23,7.23,0,0,1,1.22-2.22,12.06,12.06,0,0,1,2.12-2.1,10.28,10.28,0,0,1,2.8-1.54A9.22,9.22,0,0,1,167.09,340Z"></path><path class="cls-2" d="M218.21,329.89a2.45,2.45,0,0,1,2.5,2.54v31.85a2.48,2.48,0,0,1-.73,1.82,2.55,2.55,0,0,1-3.57,0,2.54,2.54,0,0,1-.7-1.82v-3.59l1,.05a3.85,3.85,0,0,1-.72,2,10.06,10.06,0,0,1-2,2.17,10.8,10.8,0,0,1-3,1.72,9.78,9.78,0,0,1-3.64.68,11.22,11.22,0,0,1-6.17-1.77,12.59,12.59,0,0,1-4.37-4.85,16.47,16.47,0,0,1,0-14.12,12.71,12.71,0,0,1,4.32-4.85,10.91,10.91,0,0,1,6.07-1.77,11,11,0,0,1,3.92.7,11.74,11.74,0,0,1,3.17,1.8,9.91,9.91,0,0,1,2.12,2.32,4.43,4.43,0,0,1,.77,2.32l-1.55.15V332.43a2.55,2.55,0,0,1,.7-1.82A2.41,2.41,0,0,1,218.21,329.89ZM208,362.73a7.14,7.14,0,0,0,4.11-1.19,8.08,8.08,0,0,0,2.77-3.25,11.26,11.26,0,0,0,0-9.28,8.08,8.08,0,0,0-2.77-3.25,7.62,7.62,0,0,0-8.21,0,8,8,0,0,0-2.79,3.25,11.26,11.26,0,0,0,0,9.28,8,8,0,0,0,2.79,3.25A7.2,7.2,0,0,0,208,362.73Z"></path><path class="cls-2" d="M248,340.57a2.41,2.41,0,0,1,1.77.72,2.51,2.51,0,0,1,.72,1.83v13.12c0,3.47-1,6.17-2.89,8.12s-4.66,2.92-8.19,2.92-6.2-1-8.11-2.92-2.87-4.65-2.87-8.12V343.12a2.54,2.54,0,0,1,.7-1.83,2.57,2.57,0,0,1,3.57,0,2.51,2.51,0,0,1,.72,1.83v13.12a6.78,6.78,0,0,0,1.53,4.85,5.88,5.88,0,0,0,4.46,1.59,6.08,6.08,0,0,0,4.55-1.59,6.74,6.74,0,0,0,1.54-4.85V343.12a2.58,2.58,0,0,1,.7-1.83A2.41,2.41,0,0,1,248,340.57Zm-8.44-2.05a1.85,1.85,0,0,1-.57-.1,1.53,1.53,0,0,1-.58-.3l-4.64-2.94a4,4,0,0,1-1.1-1,2.1,2.1,0,0,1-.39-1.18,1.89,1.89,0,0,1,.74-1.57,2.54,2.54,0,0,1,1.55-.57,2.4,2.4,0,0,1,1.2.32,4.77,4.77,0,0,1,.95.73l4,4a1.69,1.69,0,0,1,.6,1.15,1.39,1.39,0,0,1-.47,1.07A1.86,1.86,0,0,1,239.57,338.52Z"></path><path class="cls-2" d="M271,340a9,9,0,0,1,5.49,1.47,7.67,7.67,0,0,1,2.72,3.95,18.25,18.25,0,0,1,.78,5.51v13.38a2.48,2.48,0,0,1-.73,1.82,2.55,2.55,0,0,1-3.57,0,2.54,2.54,0,0,1-.7-1.82V351a9.81,9.81,0,0,0-.49-3.22,4.69,4.69,0,0,0-1.73-2.29,5.8,5.8,0,0,0-3.42-.88,7.21,7.21,0,0,0-3.59.88,6.59,6.59,0,0,0-2.42,2.29,6.07,6.07,0,0,0-.87,3.22v13.33a2.48,2.48,0,0,1-.73,1.82,2.55,2.55,0,0,1-3.57,0,2.54,2.54,0,0,1-.7-1.82V343.12a2.58,2.58,0,0,1,.7-1.83,2.57,2.57,0,0,1,3.57,0,2.52,2.52,0,0,1,.73,1.83v2.79l-.9.5a7.23,7.23,0,0,1,1.22-2.22,12.06,12.06,0,0,1,2.12-2.1,10.14,10.14,0,0,1,2.8-1.54A9.22,9.22,0,0,1,271,340Z"></path><path class="cls-2" d="M297.58,340a10.91,10.91,0,0,1,3.94.7,11.75,11.75,0,0,1,3.12,1.77,10.09,10.09,0,0,1,2.07,2.22,3.87,3.87,0,0,1,.75,2l-1.15,0v-4a2.53,2.53,0,0,1,.7-1.8,2.56,2.56,0,0,1,3.6,0,2.53,2.53,0,0,1,.69,1.82v22a12.18,12.18,0,0,1-1.79,6.92,10.61,10.61,0,0,1-4.77,3.91,16.2,16.2,0,0,1-9.46.93,28.42,28.42,0,0,1-3.12-.78,6.21,6.21,0,0,1-2-.9,3.17,3.17,0,0,1-1.52-1.39,1.74,1.74,0,0,1,0-1.6,2.1,2.1,0,0,1,1.3-1.35,3.2,3.2,0,0,1,1.95.15c.33.1.85.28,1.54.55a18.77,18.77,0,0,0,2.35.72,10,10,0,0,0,2.45.33q4,0,6-1.85a6.47,6.47,0,0,0,2-5v-4.49l.6.35a4.63,4.63,0,0,1-1,2.12,9.37,9.37,0,0,1-2,2,11.44,11.44,0,0,1-2.85,1.47,9.62,9.62,0,0,1-3.34.58,11.65,11.65,0,0,1-6.32-1.77,12.76,12.76,0,0,1-4.47-4.85,16,16,0,0,1,0-14.12,13,13,0,0,1,4.42-4.85A11.31,11.31,0,0,1,297.58,340Zm.75,4.59a7.74,7.74,0,0,0-4.27,1.2,8,8,0,0,0-2.9,3.25,11.06,11.06,0,0,0,0,9.28,8,8,0,0,0,2.9,3.25,7.73,7.73,0,0,0,4.27,1.19,7.84,7.84,0,0,0,4.29-1.17,8,8,0,0,0,2.89-3.24,10.91,10.91,0,0,0,0-9.34,8,8,0,0,0-2.89-3.24A7.84,7.84,0,0,0,298.33,344.56Z"></path><g id="Layer_2-2" data-name="Layer 2"><g id="&#xD1;&#xEB;&#xEE;&#xE9;_1" data-name="&#xD1;&#xEB;&#xEE;&#xE9; 1"><path class="cls-3" d="M248.3,116.31a31.22,31.22,0,1,0-31.22,31.22h0A31.26,31.26,0,0,0,248.3,116.31Zm-31.22,26.16a26.16,26.16,0,1,1,26.17-26.16h0a26.2,26.2,0,0,1-26.17,26.16Z"></path><path class="cls-3" d="M286,192.35a5.8,5.8,0,0,0,.35-5.59l-22.05-46a7.16,7.16,0,0,0,.06-2.69l-1.52-8.79a2.15,2.15,0,0,1,.45-1.71l5.64-6.89a7.2,7.2,0,0,0,0-9.14l-5.69-6.86a2.13,2.13,0,0,1-.46-1.7l1.43-8.79a7.18,7.18,0,0,0-4.6-7.89l-8.36-3.1A2.12,2.12,0,0,1,249.91,82l-3.15-8.32a7.2,7.2,0,0,0-7.94-4.53L230,70.61a2.12,2.12,0,0,1-1.7-.45l-6.88-5.66a7.22,7.22,0,0,0-9.14,0l-6.86,5.7a2.13,2.13,0,0,1-1.7.46l-8.81-1.43a7.16,7.16,0,0,0-7.87,4.59L184,82.22a2.18,2.18,0,0,1-1.24,1.25l-8.32,3.16a7.17,7.17,0,0,0-4.54,7.93l1.52,8.79a2.15,2.15,0,0,1-.45,1.71l-5.64,6.9a7.18,7.18,0,0,0,0,9.14l5.69,6.84a2.1,2.1,0,0,1,.47,1.7L170,138.43a6.92,6.92,0,0,0,0,2.13l-22.16,46.2a5.77,5.77,0,0,0,.34,5.59,5.05,5.05,0,0,0,4.41,2.39l17-.42a4.94,4.94,0,0,1,4.3,2.61l9.19,15.88a5.18,5.18,0,0,0,4.44,2.62h.19a5.2,5.2,0,0,0,4.45-3l21-43.91a7.18,7.18,0,0,0,7.75.18l21,43.73a5.21,5.21,0,0,0,4.45,3h.19a5.18,5.18,0,0,0,4.44-2.62l9.2-15.88a4.87,4.87,0,0,1,4.29-2.61l17,.42A5.11,5.11,0,0,0,286,192.35Zm-98.29,17.88a.25.25,0,0,1-.08.12l-.06-.08-9.21-15.88a10,10,0,0,0-8.79-5.12l-17,.42a.65.65,0,0,1-.1-.76l20.79-43.34a6.81,6.81,0,0,0,1.42.73l8.36,3.09a2.11,2.11,0,0,1,1.25,1.25l3.16,8.31a7.21,7.21,0,0,0,7.94,4.54l8.78-1.51a2.11,2.11,0,0,1,1.71.45l3.4,2.76Zm28.26-46-6.9-5.63a7.14,7.14,0,0,0-4.53-1.62,7,7,0,0,0-1.21.1l-8.79,1.51a2.13,2.13,0,0,1-2.35-1.34L189,148.89a7.17,7.17,0,0,0-4.24-4.21l-8.35-3.09a2.15,2.15,0,0,1-1.36-2.34l1.43-8.79a7.2,7.2,0,0,0-1.55-5.75l-5.71-6.86a2.15,2.15,0,0,1,0-2.71l5.63-6.9a7.17,7.17,0,0,0,1.51-5.75l-1.51-8.79a2.11,2.11,0,0,1,1.34-2.34l8.31-3.16a7.19,7.19,0,0,0,4.2-4.23l3.09-8.36a2.15,2.15,0,0,1,2.34-1.36l8.79,1.43a7.17,7.17,0,0,0,5.75-1.56l6.86-5.7a2.14,2.14,0,0,1,2.7,0l6.9,5.64a7.2,7.2,0,0,0,5.76,1.51l8.78-1.51A2.12,2.12,0,0,1,242,75.4l3.16,8.32a7.2,7.2,0,0,0,4.23,4.19l8.35,3.1a2.12,2.12,0,0,1,1.37,2.33l-1.42,8.82a7.19,7.19,0,0,0,1.57,5.74l5.69,6.86h0a2.13,2.13,0,0,1,0,2.71l-5.63,6.9a7.15,7.15,0,0,0-1.52,5.75l1.52,8.79a2.15,2.15,0,0,1-1.35,2.35l-8.32,3.16a7.16,7.16,0,0,0-4.19,4.22l-3.1,8.37a2.13,2.13,0,0,1-2.34,1.36l-8.79-1.44a7.19,7.19,0,0,0-5.74,1.57l-6.86,5.69A2.13,2.13,0,0,1,215.92,164.19Zm39.94,30.19-9.2,15.88a.16.16,0,0,1-.06.08.36.36,0,0,1-.08-.12l-21.47-44.79,3.67-3a2.09,2.09,0,0,1,1.7-.47l8.79,1.43a7.18,7.18,0,0,0,7.9-4.61l3.09-8.36a2.16,2.16,0,0,1,1.25-1.26l8.31-3.15a7.7,7.7,0,0,0,1.12-.54l20.85,43.49a.73.73,0,0,1-.08.74l-17-.41a10,10,0,0,0-8.78,5.12Z"></path></g></g></g></g></svg>